<?xml version="1.0" standalone="no"?>
<!DOCTYPE svg PUBLIC "-//W3C//DTD SVG 1.1//EN" "http://www.w3.org/Graphics/SVG/1.1/DTD/svg11.dtd" >
<svg xmlns="http://www.w3.org/2000/svg">
<metadata></metadata>
<defs>
<font id="ftv_stanleyregular" horiz-adv-x="980" >
<font-face units-per-em="2048" ascent="1536" descent="-512" />
<missing-glyph horiz-adv-x="327" />
<glyph horiz-adv-x="0" />
<glyph horiz-adv-x="682" />
<glyph unicode=" "  horiz-adv-x="327" />
<glyph unicode="&#x09;" horiz-adv-x="327" />
<glyph unicode="&#xa0;" horiz-adv-x="327" />
<glyph unicode="!" horiz-adv-x="444" d="M92 53v185q0 51 53 51h154q53 0 53 -51v-185q0 -53 -53 -53h-154q-53 0 -53 53zM92 905v506q0 51 53 51h154q53 0 53 -51v-506q0 -42 -4 -104l-29 -322q-3 -53 -57 -53h-78q-54 0 -57 53l-29 322q-6 71 -6 104z" />
<glyph unicode="&#x22;" horiz-adv-x="792" d="M92 975v434q0 53 53 53h123q51 0 51 -53v-434q0 -53 -51 -53h-123q-53 0 -53 53zM473 975v434q0 53 53 53h123q51 0 51 -53v-434q0 -53 -51 -53h-123q-53 0 -53 53z" />
<glyph unicode="#" horiz-adv-x="1335" d="M41 426l18 123q9 53 60 53h125q55 0 61 51l17 125q6 53 -46 53h-120q-56 0 -47 52l18 125q9 51 59 51h123q51 0 60 53l43 299q9 51 59 51h131q51 0 45 -51l-41 -299q-9 -53 45 -53h168q53 0 62 53l41 299q6 51 61 51h131q51 0 45 -51l-41 -299q-9 -53 45 -53h125 q54 0 45 -51l-18 -125q-9 -52 -60 -52h-125q-50 0 -59 -53l-18 -125q-9 -51 45 -51h123q54 0 45 -53l-19 -123q-9 -51 -59 -51h-121q-52 0 -61 -53l-37 -271q-6 -51 -60 -51h-133q-54 0 -45 51l39 271q9 53 -47 53h-168q-50 0 -59 -53l-39 -271q-9 -51 -60 -51h-131 q-56 0 -47 51l39 271q9 53 -45 53h-125q-56 0 -47 51zM541 653q-9 -51 47 -51h168q50 0 59 51l19 125q9 53 -46 53h-170q-50 0 -59 -53z" />
<glyph unicode="$" horiz-adv-x="921" d="M57 373v84q0 53 52 53h161q54 0 54 -53v-82q0 -68 38 -115t99 -47q121 0 121 137q0 87 -107 185l-182 157q-142 130 -195 238q-41 84 -41 196q0 136 76.5 228t212.5 121v141q0 53 53 53h123q53 0 53 -53v-146q125 -36 193 -139t66 -241l-3 -109q0 -51 -51 -51h-159 q-54 0 -54 51l2 109q3 159 -125 159q-108 0 -108 -123q0 -77 53 -145q28 -38 139 -135q158 -140 224 -219q112 -139 112 -277q0 -133 -79 -231t-210 -129v-152q0 -51 -53 -51h-123q-53 0 -53 51v152q-134 32 -211.5 136.5t-77.5 246.5z" />
<glyph unicode="%" horiz-adv-x="1697" d="M72 930v227q0 144 85.5 236t225.5 92t226.5 -92t86.5 -236v-227q0 -144 -86.5 -236t-226.5 -92t-225.5 92t-85.5 236zM315 899q0 -70 68 -70q70 0 70 70v289q0 69 -70 69q-68 0 -68 -69v-289zM416 29q0 6 4 18l612 1368q21 47 74 47h131q35 0 35 -28q0 -7 -4 -19 l-613 -1368q-21 -47 -73 -47h-131q-35 0 -35 29zM1001 305v227q0 144 86 236t226 92t226.5 -92t86.5 -236v-227q0 -144 -86.5 -236t-226.5 -92t-226 92t-86 236zM1245 274q0 -69 68 -69q69 0 69 69v289q0 70 -69 70q-68 0 -68 -70v-289z" />
<glyph unicode="&#x26;" horiz-adv-x="1132" d="M57 401q0 107 66 242q56 115 145 207q19 19 4 53q-64 154 -73 271q-12 152 75 233q84 78 236 78q134 0 213.5 -79t79.5 -212q0 -110 -66 -201l-133 -164q-12 -15 -6 -47l90 -266q3 -12 14 -12q10 0 13 16q10 167 10 305q0 31 33 31h141q35 0 35 -33q0 -359 -92 -585 q-3 -10 0 -23q21 -59 53 -51q35 9 14 80q-8 38 31 47l113 20q27 5 43 -13t21 -42.5t5 -56.5q0 -102 -80 -164q-70 -58 -178 -58q-85 0 -162 56q-8 8 -24 8q-17 0 -25 -8q-94 -58 -213 -58q-187 0 -290 121q-93 116 -93 305zM315 403q0 -194 158 -194q50 0 70 33q6 9 0 22 q-18 39 -131 307q-7 17 -21 17q-13 0 -22 -15q-54 -94 -54 -170zM442 1174q10 -78 41 -152q6 -14 17 -14t18 10q43 76 53 158q12 100 -65 100q-76 0 -64 -102z" />
<glyph unicode="'" horiz-adv-x="411" d="M92 975v434q0 53 51 53h125q51 0 51 -53v-434q0 -53 -51 -53h-125q-51 0 -51 53z" />
<glyph unicode="(" horiz-adv-x="618" d="M102 618q0 571 308 1002q12 18 26 18q26 0 115 -65q16 -12 6 -41q-95 -245 -135 -447q-37 -203 -37 -467q0 -503 170 -894q10 -23 -6 -39q-79 -88 -103 -88q-21 0 -32 20q-312 491 -312 1001z" />
<glyph unicode=")" horiz-adv-x="618" d="M61 1532q-9 28 7 41q8 6 20.5 14.5t31.5 21.5t34 23q15 6 28 6q15 0 27 -18q307 -430 307 -1002q0 -511 -311 -1001q-11 -20 -33 -20q-23 0 -102 88q-17 17 -7 39q170 391 170 894q0 274 -38 467q-35 193 -134 447z" />
<glyph unicode="*" horiz-adv-x="917" d="M82 958q0 30 31 39l194 60q21 6 21 14q0 10 -21 16l-194 62q-31 9 -31 39q0 13 6 22l66 113q13 23 36 23q13 0 29 -13l152 -139q15 -12 20 -12q12 0 6 28l-45 201q-12 51 41 51h131q53 0 41 -51l-45 -201q-6 -26 6 -26q11 0 21 10l151 139q16 13 29 13q24 0 37 -23 l65 -113q7 -11 7 -22q0 -30 -31 -39l-195 -62q-20 -6 -20 -16q0 -8 20 -14l195 -60q31 -9 31 -39q0 -12 -7 -22l-65 -113q-13 -22 -37 -22q-14 0 -29 12l-151 139q-11 11 -21 11q-12 0 -6 -27l45 -201q12 -51 -41 -51h-131q-53 0 -41 51l45 199q6 29 -8 29q-4 0 -20 -13 l-150 -137q-15 -12 -29 -12q-23 0 -36 22l-66 113q-6 9 -6 22z" />
<glyph unicode="+" horiz-adv-x="1015" d="M82 573v146q0 53 53 53h195q53 0 53 53v195q0 53 53 53h146q51 0 51 -53v-195q0 -53 53 -53h195q53 0 53 -53v-146q0 -51 -53 -51h-195q-53 0 -53 -53v-195q0 -53 -51 -53h-146q-53 0 -53 53v195q0 53 -53 53h-195q-53 0 -53 51z" />
<glyph unicode="," horiz-adv-x="421" d="M82 53v185q0 51 53 51h154q51 0 51 -51v-238q0 -155 -55 -268q-15 -35 -58 -35q-34 0 -34 35l10 43q21 89 24 200q0 25 -26 25h-66q-53 0 -53 53z" />
<glyph unicode="-" horiz-adv-x="712" d="M82 569v146q0 53 53 53h443q53 0 53 -53v-146q0 -53 -53 -53h-443q-53 0 -53 53z" />
<glyph unicode="." horiz-adv-x="444" d="M92 53v185q0 51 53 51h154q53 0 53 -51v-185q0 -53 -53 -53h-154q-53 0 -53 53z" />
<glyph unicode="/" horiz-adv-x="694" d="M41 8q0 13 2 19l377 1407q15 51 65 51h148q41 0 41 -33q0 -12 -2 -18l-377 -1407q-15 -52 -68 -52h-145q-41 0 -41 33z" />
<glyph unicode="0" horiz-adv-x="948" d="M78 365v731q0 174 108 282q110 107 287 107t287 -107t110 -282v-731q0 -176 -110 -283t-287 -107q-175 0 -285 107t-110 283zM367 365q0 -138 106 -138q107 0 107 138v731q0 137 -107 137q-106 0 -106 -137v-731z" />
<glyph unicode="1" horiz-adv-x="610" d="M-20 1157v131q0 58 51 70l98 24q33 14 92 48q51 32 80 32h154q53 0 53 -53v-1356q0 -53 -53 -53h-185q-53 0 -53 53v1045q0 44 -47 35q-88 -19 -137 -21q-53 -3 -53 45z" />
<glyph unicode="2" horiz-adv-x="915" d="M61 53q0 194 97 365q33 58 198 260q107 127 148 201q53 95 53 188v45q0 137 -106 137q-107 0 -107 -137v-76q0 -53 -53 -53h-168q-53 0 -53 53v84q0 169 104 267t277 98q181 0 285 -111.5t104 -298.5q0 -141 -76 -284q-59 -106 -168 -242q-126 -164 -172 -242 q-8 -13 -8 -24q0 -31 43 -31h342q53 0 53 -53v-146q0 -53 -53 -53h-686q-54 0 -54 53z" />
<glyph unicode="3" horiz-adv-x="915" d="M61 356v101q0 51 54 51h168q53 0 53 -51v-86q0 -152 115 -152q114 0 114 152v131q0 151 -114 151h-93q-53 0 -53 54v114q0 53 53 53h93q106 0 106 146v90q0 137 -106 137q-107 0 -107 -137v-61q0 -54 -53 -54h-162q-51 0 -51 54v69q0 171 100.5 269t272.5 98 q182 0 285.5 -112.5t103.5 -299.5q0 -80 -31 -147l-74 -125q-6 -9 -6 -23t10 -24q115 -109 115 -314q0 -212 -94 -331q-107 -134 -309 -134q-173 0 -281 105q-109 106 -109 276z" />
<glyph unicode="4" horiz-adv-x="933" d="M31 381v131q0 54 18 100l320 803q18 47 71 47h260q54 0 54 -51v-795q0 -53 53 -53h43q53 0 53 -51v-131q0 -53 -53 -53h-43q-53 0 -53 -54v-221q0 -53 -54 -53h-184q-51 0 -51 53v221q0 54 -53 54h-330q-51 0 -51 53zM252 590q0 -27 37 -27h123q53 0 53 53v488 q0 22 -16 22q-17 0 -23 -18l-170 -496q-4 -16 -4 -22z" />
<glyph unicode="5" horiz-adv-x="901" d="M72 365v47q0 51 51 51h178q51 0 51 -51v-78q0 -121 101 -121q98 0 98 121v274q0 123 -102 123q-48 0 -87 -33q-40 -30 -77 -24q-45 7 -133 28q-59 15 -56 80q0 1 3 66.5t10.5 223.5t15.5 339q3 51 55 51h592q53 0 53 -53v-133q0 -53 -53 -53h-344q-17 0 -26.5 -7.5 t-14 -29.5t-6 -45t-2.5 -71t-2 -77q0 -35 8 -43q8 -13 47 -4q20 4 49 4q166 0 260 -110q99 -111 99 -277v-184q0 -186 -103 -295t-284 -109q-176 0 -278.5 105.5t-102.5 284.5z" />
<glyph unicode="6" horiz-adv-x="946" d="M82 365v731q0 174 111 282q110 107 286 107q177 0 283 -106t106 -283v-33q0 -51 -53 -51h-176q-53 0 -53 51v41q0 129 -107 129q-106 0 -106 -129v-240q0 -14 14 -20q15 -6 29 2q58 37 123 37q162 0 248.5 -94t86.5 -261v-163q0 -178 -108 -284t-287 -106 q-181 0 -289 105.5t-108 284.5zM373 342q0 -123 106 -123q107 0 107 123v197q0 123 -107 123q-106 0 -106 -123v-197z" />
<glyph unicode="7" horiz-adv-x="802" d="M41 1280v129q0 53 53 53h635q53 0 53 -53v-160q0 -12 -16 -49q-258 -531 -258 -1147q0 -53 -53 -53h-174q-54 0 -54 53q0 315 82 606q42 146 189 521q7 19 -7 33t-36 14h-361q-53 0 -53 53z" />
<glyph unicode="8" horiz-adv-x="972" d="M82 440q0 205 115 314q12 12 12 28q0 12 -12 27q-97 111 -97 274q0 186 102 294t283 108t283 -108t102 -294q0 -178 -94 -276q-12 -12 -12 -29q0 -12 12 -24q115 -109 115 -314q0 -206 -96 -331q-110 -134 -310 -134q-202 0 -309 134q-94 119 -94 331zM373 371 q0 -152 112 -152q115 0 115 152v131q0 151 -115 151q-112 0 -112 -151v-131zM379 1020q0 -137 106 -137q109 0 109 137v90q0 137 -109 137q-106 0 -106 -137v-90z" />
<glyph unicode="9" horiz-adv-x="946" d="M72 938v158q0 178 108 283.5t287 105.5q180 0 288.5 -102.5t108.5 -278.5v-731q0 -179 -110 -289q-109 -109 -287 -109q-179 0 -289 107q-109 106 -100 283l2 32q3 52 51 52h178q51 0 51 -52v-41q0 -129 107 -129q106 0 106 129v248q0 15 -14 21q-15 6 -29 -2 q-58 -37 -122 -37q-160 0 -248 93.5t-88 258.5zM360 928q0 -121 107 -121q106 0 106 121v190q0 123 -106 123q-107 0 -107 -123v-190z" />
<glyph unicode=":" horiz-adv-x="442" d="M92 53v185q0 51 51 51h154q53 0 53 -51v-185q0 -53 -53 -53h-154q-51 0 -51 53zM92 700v185q0 53 51 53h154q53 0 53 -53v-185q0 -53 -53 -53h-154q-51 0 -51 53z" />
<glyph unicode=";" horiz-adv-x="442" d="M92 53v185q0 51 51 51h154q53 0 53 -51v-238q0 -155 -55 -268q-15 -35 -57 -35q-37 0 -37 35q0 -4 12 43q20 89 23 200q0 25 -27 25h-66q-51 0 -51 53zM92 700v185q0 53 51 53h154q53 0 53 -53v-185q0 -53 -53 -53h-154q-51 0 -51 53z" />
<glyph unicode="&#x3c;" horiz-adv-x="661" d="M61 748q0 27 11 45l297 481q15 24 43 24q15 0 28 -8l123 -73q29 -16 29 -41q0 -15 -12 -33l-224 -350q-12 -18 -12 -45q0 -25 12 -43l224 -353q10 -17 10 -30q0 -26 -27 -41l-121 -76q-11 -8 -32 -8q-29 3 -41 24l-295 481q-13 23 -13 46z" />
<glyph unicode="=" horiz-adv-x="712" d="M82 430v109q0 53 53 53h443q53 0 53 -53v-109q0 -51 -53 -51h-443q-53 0 -53 51zM82 750v108q0 53 53 53h443q53 0 53 -53v-108q0 -52 -53 -52h-443q-53 0 -53 52z" />
<glyph unicode="&#x3e;" horiz-adv-x="661" d="M70 1176q0 25 28 41l123 73q13 8 29 8q28 0 43 -24l297 -481q10 -17 10 -45q0 -25 -12 -46l-295 -481q-12 -21 -41 -24q-22 0 -33 8l-121 76q-26 14 -26 41q0 13 10 30l223 353q12 18 12 43q0 27 -12 45l-223 350q-12 18 -12 33z" />
<glyph unicode="?" horiz-adv-x="878" d="M51 1090q-3 175 103 284q108 111 280 111q169 0 279 -90q114 -95 114 -267q0 -166 -73 -297q-10 -21 -133 -194q-74 -103 -74 -186q0 -54 2 -62q6 -39 -31 -39h-147q-34 0 -43 31q-19 59 -19 123q0 132 160 327q53 62 68 140q12 55 12 157q0 121 -111 121 q-126 0 -123 -159l2 -93q3 -53 -53 -53h-160q-48 0 -51 53zM326 53v185q0 51 51 51h153q54 0 54 -51v-185q0 -53 -54 -53h-153q-51 0 -51 53z" />
<glyph unicode="@" horiz-adv-x="1478" d="M61 731q0 312 193 529q202 225 508 225q285 0 473 -182t188 -465q0 -196 -102 -346q-113 -168 -303 -168q-88 0 -150 36q-73 42 -88 119q0 6 -8 6q-4 0 -10 -6q-70 -76 -168 -76q-150 0 -150 224q0 56 17 143q76 365 256 365q67 0 127 -84q4 -4 6 -4q4 5 10 32 q9 41 55 41h107q44 0 35 -43l-99 -459q-6 -27 -6 -55q0 -94 90 -94q110 0 162 137q39 95 39 230q0 224 -129.5 356.5t-351.5 132.5q-242 0 -385 -180q-133 -168 -133 -414q0 -257 129 -420q141 -182 389 -182q141 0 268 59q43 21 64 -14q0 4 10 -16q8 -14 20 -39 q11 -18 11 -27q0 -18 -31 -37q-133 -80 -342 -80q-306 0 -506 228q-195 219 -195 528zM635 623q0 -60 35 -60q54 0 104 207q23 103 23 143q0 53 -27 62q-65 21 -115 -205q-20 -90 -20 -147z" />
<glyph unicode="A" horiz-adv-x="970" d="M10 51l291 1360q9 51 64 51h243q55 0 64 -51l291 -1360q1 -8 1 -14q0 -37 -42 -37h-187q-52 0 -61 51l-43 232q-9 53 -62 53h-166q-52 0 -61 -53l-43 -232q-9 -51 -61 -51h-187q-42 0 -42 37q0 6 1 14zM397 598q-1 -5 -1 -10q0 -41 46 -41h88q44 0 44 40q0 5 -1 11 l-63 477q-3 23 -25 23t-22 -23z" />
<glyph unicode="B" horiz-adv-x="1017" d="M92 53v1358q0 51 51 51h381q186 0 299 -98q121 -109 121 -289q0 -196 -123 -295q-16 -13 -16 -28q0 -12 16 -25q146 -113 146 -332q0 -184 -109 -289.5t-295 -105.5h-420q-51 0 -51 53zM381 319q0 -53 53 -53h115q60 0 94.5 37.5t34.5 99.5v93q0 137 -129 137h-115 q-53 0 -53 -53v-261zM381 907q0 -53 51 -53h92q61 0 96 37.5t35 99.5v84q0 135 -131 135h-92q-51 0 -51 -51v-252z" />
<glyph unicode="C" horiz-adv-x="956" d="M72 365v731q0 181 118 284q120 105 302 105q184 0 293.5 -105t109.5 -284v-138q0 -53 -53 -53h-176q-54 0 -54 53v138q0 61 -32 99t-88 38q-61 0 -96.5 -37.5t-35.5 -99.5v-731q0 -62 35.5 -100t96.5 -38q56 0 88 38.5t32 99.5v137q0 53 54 53h176q53 0 53 -53v-137 q0 -177 -111 -283.5t-292 -106.5q-179 0 -297 103q-123 108 -123 287z" />
<glyph unicode="D" horiz-adv-x="987" d="M92 53v1358q0 51 53 51h351q180 0 299 -104q120 -105 120 -283v-686q0 -177 -120 -285q-119 -104 -299 -104h-351q-53 0 -53 53zM381 303q0 -51 53 -51h62q60 0 94.5 37.5t34.5 99.5v686q0 135 -129 135h-62q-53 0 -53 -51v-856z" />
<glyph unicode="E" horiz-adv-x="888" d="M92 53v1358q0 51 53 51h627q53 0 53 -51v-147q0 -52 -53 -52h-338q-51 0 -51 -53v-207q0 -53 51 -53h277q53 0 53 -53v-146q0 -53 -53 -53h-277q-51 0 -51 -51v-293q0 -51 51 -51h361q53 0 53 -53v-146q0 -53 -53 -53h-650q-53 0 -53 53z" />
<glyph unicode="F" horiz-adv-x="864" d="M92 53v1358q0 51 53 51h641q54 0 54 -51v-147q0 -54 -54 -54h-352q-53 0 -53 -51v-207q0 -53 53 -53h291q53 0 53 -53v-146q0 -53 -53 -53h-291q-53 0 -53 -53v-541q0 -53 -51 -53h-185q-53 0 -53 53z" />
<glyph unicode="G" horiz-adv-x="948" d="M72 379v717q0 176 123 284q117 105 297 105q177 0 284 -107q111 -108 111 -282v-101q0 -53 -53 -53h-168q-54 0 -54 53v101q0 61 -32 99t-88 38q-61 0 -96.5 -37.5t-35.5 -99.5v-731q0 -62 35.5 -100t96.5 -38q64 0 100.5 45t36.5 115v125q0 45 -39 45h-31q-53 0 -53 47 v115q0 53 53 53h275q53 0 53 -53v-674q0 -45 -45 -45h-41q-42 0 -45 37l-6 59q-3 17 -15 17q-11 0 -18 -13q-85 -125 -262 -125q-178 0 -280.5 109.5t-102.5 294.5z" />
<glyph unicode="H" horiz-adv-x="1021" d="M92 53v1358q0 51 51 51h185q53 0 53 -51v-489q0 -54 53 -54h154q51 0 51 54v489q0 51 53 51h185q53 0 53 -51v-1358q0 -53 -53 -53h-185q-53 0 -53 53v512q0 51 -51 51h-154q-53 0 -53 -51v-512q0 -53 -53 -53h-185q-51 0 -51 53z" />
<glyph unicode="I" horiz-adv-x="485" d="M98 53v1358q0 51 54 51h182q53 0 53 -51v-1358q0 -53 -53 -53h-182q-54 0 -54 53z" />
<glyph unicode="J" horiz-adv-x="567" d="M-10 168q0 53 53 53h61q93 0 93 115v1073q0 53 53 53h182q53 0 53 -53v-1081q0 -351 -274 -351q-132 0 -160 7q-59 15 -59 69z" />
<glyph unicode="K" horiz-adv-x="972" d="M92 53v1358q0 51 53 51h185q53 0 53 -51v-412q0 -22 20 -22q17 0 27 16l225 424q23 45 78 45h176q33 0 33 -24q0 -12 -6 -21l-301 -522q-14 -22 -14 -49q0 -29 8 -45l327 -752q5 -15 5 -16q0 -33 -37 -33h-181q-52 0 -73 49l-205 469q-9 21 -21 21q-18 0 -36 -35 q-25 -48 -25 -98v-353q0 -53 -53 -53h-185q-53 0 -53 53z" />
<glyph unicode="L" horiz-adv-x="780" d="M92 53v1358q0 51 53 51h185q51 0 51 -51v-1108q0 -51 53 -51h268q54 0 54 -53v-146q0 -53 -54 -53h-557q-53 0 -53 53z" />
<glyph unicode="M" horiz-adv-x="1341" d="M92 53v1358q0 51 53 51h306q54 0 63 -51l133 -770q3 -23 25 -23q19 0 22 21l142 772q9 51 63 51h299q51 0 51 -51v-1358q0 -53 -51 -53h-170q-53 0 -53 53v961q0 16 -17 16q-19 0 -22 -16l-164 -963q-9 -51 -61 -51h-78q-55 0 -64 51l-163 965q-3 14 -21 14t-18 -18v-959 q0 -53 -54 -53h-168q-53 0 -53 53z" />
<glyph unicode="N" horiz-adv-x="1044" d="M92 53v1358q0 51 53 51h185q54 0 69 -49l234 -725q6 -16 18 -16q21 0 21 20v719q0 51 51 51h178q51 0 51 -51v-1358q0 -53 -51 -53h-178q-55 0 -70 49l-239 739q-3 15 -21 15t-18 -19v-731q0 -53 -53 -53h-177q-53 0 -53 53z" />
<glyph unicode="O" d="M72 365v731q0 177 121 286q115 103 296 103q182 0 302 -105q118 -103 118 -284v-731q0 -176 -121 -285q-120 -105 -299 -105t-299 105q-118 106 -118 285zM360 365q0 -62 35 -100t94 -38t94 38t35 100v731q0 137 -129 137t-129 -137v-731z" />
<glyph unicode="P" d="M92 53v1358q0 51 53 51h375q201 0 310.5 -117t109.5 -323t-110 -324t-310 -118h-86q-53 0 -53 -54v-473q0 -53 -53 -53h-183q-53 0 -53 53zM381 860q0 -53 53 -53h64q153 0 153 215q0 213 -153 213h-64q-53 0 -53 -53v-322z" />
<glyph unicode="Q" d="M59 360v766q0 172 117 283q116 113 313 113q195 0 314 -113q119 -110 119 -283v-766q0 -143 -86.5 -247.5t-233.5 -135.5q-4 -12 -4 -16q0 -29 56 -29q14 0 32 2l51 7q51 0 51 -45v-60q0 -49 -57 -69q-41 -15 -127 -15q-197 0 -215 225q-153 29 -241.5 132.5t-88.5 250.5 zM356 360q0 -55 33 -94q33 -45 103 -45q66 0 102 45q31 39 31 94v766q0 60 -36 100t-100 40t-98.5 -39.5t-34.5 -100.5v-766z" />
<glyph unicode="R" horiz-adv-x="1021" d="M92 53v1358q0 51 53 51h375q196 0 308 -109.5t112 -303.5q0 -204 -147 -318q-15 -9 -15 -29q0 -13 15 -22q137 -104 137 -281v-57q0 -152 39 -197q12 -24 12 -51q0 -56 -49 -86q-39 -26 -101 -26q-69 0 -120 57q-43 52 -58 125q-12 62 -12 194v62q0 182 -160 182h-47 q-53 0 -53 -53v-496q0 -53 -53 -53h-183q-53 0 -53 53zM381 874q0 -53 53 -53h64q153 0 153 207t-153 207h-64q-53 0 -53 -53v-308z" />
<glyph unicode="S" horiz-adv-x="903" d="M57 373q0 137 62 137h162q54 0 54 -40q0 -6 -1 -13q-8 -44 -8 -82q2 -70 39 -116t98 -46q123 0 123 137q0 82 -109 185q-147 125 -182 157q-142 130 -195 238q-41 84 -41 196q0 175 113 269q110 90 283 90q179 0 281 -106q100 -104 100 -282v-7q0 -76 -5 -101 q-12 -61 -61 -61h-154q-31 0 -44.5 13.5t-10.5 39.5q12 55 12 121q0 147 -124 147q-111 0 -111 -123q0 -75 55 -145q45 -53 139 -135q160 -142 222 -219q112 -139 112 -277q0 -170 -114 -272q-115 -103 -289 -103q-178 0 -293 109q-113 107 -113 289z" />
<glyph unicode="T" horiz-adv-x="813" d="M10 1264v147q0 51 53 51h687q53 0 53 -51v-147q0 -52 -53 -52h-146q-53 0 -53 -53v-1106q0 -53 -53 -53h-183q-53 0 -53 53v1106q0 53 -53 53h-146q-53 0 -53 52z" />
<glyph unicode="U" horiz-adv-x="995" d="M86 365v1044q0 53 53 53h185q51 0 51 -53v-1044q0 -138 123 -138q120 0 120 138v1044q0 53 54 53h184q53 0 53 -53v-1044q0 -178 -116 -285q-114 -105 -295 -105q-180 0 -297 105q-115 109 -115 285z" />
<glyph unicode="V" horiz-adv-x="880" d="M0 1411q-1 8 -1 14q0 37 44 37h176q53 0 62 -51l135 -909q7 -23 24 -23q20 0 23 23l135 909q9 51 61 51h177q44 0 44 -37q0 -6 -1 -14l-269 -1360q-9 -51 -63 -51h-215q-55 0 -64 51z" />
<glyph unicode="W" horiz-adv-x="1210" d="M10 1411q-1 5 -1 10q0 41 48 41h154q54 0 57 -51l64 -643q4 -18 16 -20q15 -3 21 20l135 643q9 51 63 51h78q55 0 64 -51l133 -643q3 -20 20 -20q19 0 19 20l61 643q3 51 59 51h154q46 0 46 -41q0 -5 -1 -10l-176 -1358q-6 -53 -59 -53h-115q-57 0 -66 51l-147 729 q-3 23 -27 23q-23 0 -26 -23l-156 -729q-9 -51 -66 -51h-114q-54 0 -60 53z" />
<glyph unicode="X" horiz-adv-x="870" d="M16 33q0 4 4 16l261 672q6 12 10 47q0 21 -10 51l-230 594q-4 16 -4 23q0 26 37 26h170q53 0 68 -49l92 -334q3 -20 22 -20q17 0 23 20l92 334q15 49 67 49h168q39 0 39 -32q0 -5 -4 -17l-229 -594q-10 -30 -10 -51q0 -20 10 -47l260 -672q4 -12 4 -16q0 -33 -39 -33 h-168q-56 0 -71 49l-119 350q-6 21 -23 21q-16 0 -22 -21l-121 -350q-15 -49 -70 -49h-168q-39 0 -39 33z" />
<glyph unicode="Y" horiz-adv-x="815" d="M-20 1430q0 32 36 32h168q55 0 70 -49l129 -448q6 -21 23 -21q16 0 22 21l131 448q15 49 68 49h170q39 0 39 -32q0 -2 -5 -17l-262 -713q-18 -50 -18 -102v-545q0 -53 -53 -53h-185q-53 0 -53 53v547q0 64 -18 102l-260 711q-2 6 -2 17z" />
<glyph unicode="Z" horiz-adv-x="874" d="M45 53v146q0 49 23 100l426 864q4 12 4 19q0 30 -35 30h-357q-53 0 -53 52v147q0 51 53 51h664q53 0 53 -51v-147q0 -52 -24 -101l-424 -864q-4 -12 -4 -18q0 -29 32 -29h375q51 0 51 -53v-146q0 -53 -51 -53h-682q-51 0 -51 53z" />
<glyph unicode="[" horiz-adv-x="516" d="M92 -350v1935q0 53 53 53h299q52 0 52 -53v-61q0 -54 -52 -54h-38q-54 0 -54 -53v-1599q0 -54 54 -54h38q52 0 52 -53v-61q0 -53 -52 -53h-299q-53 0 -53 53z" />
<glyph unicode="\" horiz-adv-x="694" d="M20 1452q0 33 41 33h148q50 0 65 -51l377 -1407q2 -6 2 -19q0 -33 -41 -33h-145q-53 0 -68 52l-376 1407q-3 9 -3 18z" />
<glyph unicode="]" horiz-adv-x="516" d="M20 -289q0 53 52 53h39q53 0 53 54v1599q0 53 -53 53h-39q-52 0 -52 54v61q0 53 52 53h299q53 0 53 -53v-1935q0 -53 -53 -53h-299q-52 0 -52 53v61z" />
<glyph unicode="^" horiz-adv-x="745" d="M80 1212q-4 11 2 17l121 123l90 92q18 18 41 18h84q19 0 35 -16l211 -217q7 -7 4 -17q-3 -8 -19 -8h-164q-16 0 -24 8q-25 22 -80 62q-2 2 -6 2t-8 -2q-6 -6 -86 -64q-9 -6 -21 -6h-164q-13 0 -16 8z" />
<glyph unicode="_" horiz-adv-x="907" d="M0 -25h907v-172h-907v172z" />
<glyph unicode="`" horiz-adv-x="460" d="M82 1409q0 29 33 29h153q54 0 66 -52l43 -172q12 -51 -39 -51h-86q-55 0 -76 47l-90 181q-4 12 -4 18z" />
<glyph unicode="a" horiz-adv-x="970" d="M10 51l291 1360q9 51 64 51h243q55 0 64 -51l291 -1360q1 -8 1 -14q0 -37 -42 -37h-187q-52 0 -61 51l-43 232q-9 53 -62 53h-166q-52 0 -61 -53l-43 -232q-9 -51 -61 -51h-187q-42 0 -42 37q0 6 1 14zM397 598q-1 -5 -1 -10q0 -41 46 -41h88q44 0 44 40q0 5 -1 11 l-63 477q-3 23 -25 23t-22 -23z" />
<glyph unicode="b" horiz-adv-x="1017" d="M92 53v1358q0 51 51 51h381q186 0 299 -98q121 -109 121 -289q0 -196 -123 -295q-16 -13 -16 -28q0 -12 16 -25q146 -113 146 -332q0 -184 -109 -289.5t-295 -105.5h-420q-51 0 -51 53zM381 319q0 -53 53 -53h115q60 0 94.5 37.5t34.5 99.5v93q0 137 -129 137h-115 q-53 0 -53 -53v-261zM381 907q0 -53 51 -53h92q61 0 96 37.5t35 99.5v84q0 135 -131 135h-92q-51 0 -51 -51v-252z" />
<glyph unicode="c" horiz-adv-x="956" d="M72 365v731q0 181 118 284q120 105 302 105q184 0 293.5 -105t109.5 -284v-138q0 -53 -53 -53h-176q-54 0 -54 53v138q0 61 -32 99t-88 38q-61 0 -96.5 -37.5t-35.5 -99.5v-731q0 -62 35.5 -100t96.5 -38q56 0 88 38.5t32 99.5v137q0 53 54 53h176q53 0 53 -53v-137 q0 -177 -111 -283.5t-292 -106.5q-179 0 -297 103q-123 108 -123 287z" />
<glyph unicode="d" horiz-adv-x="987" d="M92 53v1358q0 51 53 51h351q180 0 299 -104q120 -105 120 -283v-686q0 -177 -120 -285q-119 -104 -299 -104h-351q-53 0 -53 53zM381 303q0 -51 53 -51h62q60 0 94.5 37.5t34.5 99.5v686q0 135 -129 135h-62q-53 0 -53 -51v-856z" />
<glyph unicode="e" horiz-adv-x="888" d="M92 53v1358q0 51 53 51h627q53 0 53 -51v-147q0 -52 -53 -52h-338q-51 0 -51 -53v-207q0 -53 51 -53h277q53 0 53 -53v-146q0 -53 -53 -53h-277q-51 0 -51 -51v-293q0 -51 51 -51h361q53 0 53 -53v-146q0 -53 -53 -53h-650q-53 0 -53 53z" />
<glyph unicode="f" horiz-adv-x="864" d="M92 53v1358q0 51 53 51h641q54 0 54 -51v-147q0 -54 -54 -54h-352q-53 0 -53 -51v-207q0 -53 53 -53h291q53 0 53 -53v-146q0 -53 -53 -53h-291q-53 0 -53 -53v-541q0 -53 -51 -53h-185q-53 0 -53 53z" />
<glyph unicode="g" horiz-adv-x="948" d="M72 379v717q0 176 123 284q117 105 297 105q177 0 284 -107q111 -108 111 -282v-101q0 -53 -53 -53h-168q-54 0 -54 53v101q0 61 -32 99t-88 38q-61 0 -96.5 -37.5t-35.5 -99.5v-731q0 -62 35.5 -100t96.5 -38q64 0 100.5 45t36.5 115v125q0 45 -39 45h-31q-53 0 -53 47 v115q0 53 53 53h275q53 0 53 -53v-674q0 -45 -45 -45h-41q-42 0 -45 37l-6 59q-3 17 -15 17q-11 0 -18 -13q-85 -125 -262 -125q-178 0 -280.5 109.5t-102.5 294.5z" />
<glyph unicode="h" horiz-adv-x="1021" d="M92 53v1358q0 51 51 51h185q53 0 53 -51v-489q0 -54 53 -54h154q51 0 51 54v489q0 51 53 51h185q53 0 53 -51v-1358q0 -53 -53 -53h-185q-53 0 -53 53v512q0 51 -51 51h-154q-53 0 -53 -51v-512q0 -53 -53 -53h-185q-51 0 -51 53z" />
<glyph unicode="i" horiz-adv-x="485" d="M98 53v1358q0 51 54 51h182q53 0 53 -51v-1358q0 -53 -53 -53h-182q-54 0 -54 53z" />
<glyph unicode="j" horiz-adv-x="567" d="M-10 168q0 53 53 53h61q93 0 93 115v1073q0 53 53 53h182q53 0 53 -53v-1081q0 -351 -274 -351q-132 0 -160 7q-59 15 -59 69z" />
<glyph unicode="k" horiz-adv-x="972" d="M92 53v1358q0 51 53 51h185q53 0 53 -51v-412q0 -22 20 -22q17 0 27 16l225 424q23 45 78 45h176q33 0 33 -24q0 -12 -6 -21l-301 -522q-14 -22 -14 -49q0 -29 8 -45l327 -752q5 -15 5 -16q0 -33 -37 -33h-181q-52 0 -73 49l-205 469q-9 21 -21 21q-18 0 -36 -35 q-25 -48 -25 -98v-353q0 -53 -53 -53h-185q-53 0 -53 53z" />
<glyph unicode="l" horiz-adv-x="780" d="M92 53v1358q0 51 53 51h185q51 0 51 -51v-1108q0 -51 53 -51h268q54 0 54 -53v-146q0 -53 -54 -53h-557q-53 0 -53 53z" />
<glyph unicode="m" horiz-adv-x="1341" d="M92 53v1358q0 51 53 51h306q54 0 63 -51l133 -770q3 -23 25 -23q19 0 22 21l142 772q9 51 63 51h299q51 0 51 -51v-1358q0 -53 -51 -53h-170q-53 0 -53 53v961q0 16 -17 16q-19 0 -22 -16l-164 -963q-9 -51 -61 -51h-78q-55 0 -64 51l-163 965q-3 14 -21 14t-18 -18v-959 q0 -53 -54 -53h-168q-53 0 -53 53z" />
<glyph unicode="n" horiz-adv-x="1044" d="M92 53v1358q0 51 53 51h185q54 0 69 -49l234 -725q6 -16 18 -16q21 0 21 20v719q0 51 51 51h178q51 0 51 -51v-1358q0 -53 -51 -53h-178q-55 0 -70 49l-239 739q-3 15 -21 15t-18 -19v-731q0 -53 -53 -53h-177q-53 0 -53 53z" />
<glyph unicode="o" d="M72 365v731q0 177 121 286q115 103 296 103q182 0 302 -105q118 -103 118 -284v-731q0 -176 -121 -285q-120 -105 -299 -105t-299 105q-118 106 -118 285zM360 365q0 -62 35 -100t94 -38t94 38t35 100v731q0 137 -129 137t-129 -137v-731z" />
<glyph unicode="p" d="M92 53v1358q0 51 53 51h375q201 0 310.5 -117t109.5 -323t-110 -324t-310 -118h-86q-53 0 -53 -54v-473q0 -53 -53 -53h-183q-53 0 -53 53zM381 860q0 -53 53 -53h64q153 0 153 215q0 213 -153 213h-64q-53 0 -53 -53v-322z" />
<glyph unicode="q" d="M59 360v766q0 172 117 283q116 113 313 113q195 0 314 -113q119 -110 119 -283v-766q0 -143 -86.5 -247.5t-233.5 -135.5q-4 -12 -4 -16q0 -29 56 -29q14 0 32 2l51 7q51 0 51 -45v-60q0 -49 -57 -69q-41 -15 -127 -15q-197 0 -215 225q-153 29 -241.5 132.5t-88.5 250.5 zM356 360q0 -55 33 -94q33 -45 103 -45q66 0 102 45q31 39 31 94v766q0 60 -36 100t-100 40t-98.5 -39.5t-34.5 -100.5v-766z" />
<glyph unicode="r" horiz-adv-x="1021" d="M92 53v1358q0 51 53 51h375q196 0 308 -109.5t112 -303.5q0 -204 -147 -318q-15 -9 -15 -29q0 -13 15 -22q137 -104 137 -281v-57q0 -152 39 -197q12 -24 12 -51q0 -56 -49 -86q-39 -26 -101 -26q-69 0 -120 57q-43 52 -58 125q-12 62 -12 194v62q0 182 -160 182h-47 q-53 0 -53 -53v-496q0 -53 -53 -53h-183q-53 0 -53 53zM381 874q0 -53 53 -53h64q153 0 153 207t-153 207h-64q-53 0 -53 -53v-308z" />
<glyph unicode="s" horiz-adv-x="903" d="M57 373q0 137 62 137h162q54 0 54 -40q0 -6 -1 -13q-8 -44 -8 -82q2 -70 39 -116t98 -46q123 0 123 137q0 82 -109 185q-147 125 -182 157q-142 130 -195 238q-41 84 -41 196q0 175 113 269q110 90 283 90q179 0 281 -106q100 -104 100 -282v-7q0 -76 -5 -101 q-12 -61 -61 -61h-154q-31 0 -44.5 13.5t-10.5 39.5q12 55 12 121q0 147 -124 147q-111 0 -111 -123q0 -75 55 -145q45 -53 139 -135q160 -142 222 -219q112 -139 112 -277q0 -170 -114 -272q-115 -103 -289 -103q-178 0 -293 109q-113 107 -113 289z" />
<glyph unicode="t" horiz-adv-x="813" d="M10 1264v147q0 51 53 51h687q53 0 53 -51v-147q0 -52 -53 -52h-146q-53 0 -53 -53v-1106q0 -53 -53 -53h-183q-53 0 -53 53v1106q0 53 -53 53h-146q-53 0 -53 52z" />
<glyph unicode="u" horiz-adv-x="995" d="M86 365v1044q0 53 53 53h185q51 0 51 -53v-1044q0 -138 123 -138q120 0 120 138v1044q0 53 54 53h184q53 0 53 -53v-1044q0 -178 -116 -285q-114 -105 -295 -105q-180 0 -297 105q-115 109 -115 285z" />
<glyph unicode="v" horiz-adv-x="880" d="M0 1411q-1 8 -1 14q0 37 44 37h176q53 0 62 -51l135 -909q7 -23 24 -23q20 0 23 23l135 909q9 51 61 51h177q44 0 44 -37q0 -6 -1 -14l-269 -1360q-9 -51 -63 -51h-215q-55 0 -64 51z" />
<glyph unicode="w" horiz-adv-x="1210" d="M10 1411q-1 5 -1 10q0 41 48 41h154q54 0 57 -51l64 -643q4 -18 16 -20q15 -3 21 20l135 643q9 51 63 51h78q55 0 64 -51l133 -643q3 -20 20 -20q19 0 19 20l61 643q3 51 59 51h154q46 0 46 -41q0 -5 -1 -10l-176 -1358q-6 -53 -59 -53h-115q-57 0 -66 51l-147 729 q-3 23 -27 23q-23 0 -26 -23l-156 -729q-9 -51 -66 -51h-114q-54 0 -60 53z" />
<glyph unicode="x" horiz-adv-x="870" d="M16 33q0 4 4 16l261 672q6 12 10 47q0 21 -10 51l-230 594q-4 16 -4 23q0 26 37 26h170q53 0 68 -49l92 -334q3 -20 22 -20q17 0 23 20l92 334q15 49 67 49h168q39 0 39 -32q0 -5 -4 -17l-229 -594q-10 -30 -10 -51q0 -20 10 -47l260 -672q4 -12 4 -16q0 -33 -39 -33 h-168q-56 0 -71 49l-119 350q-6 21 -23 21q-16 0 -22 -21l-121 -350q-15 -49 -70 -49h-168q-39 0 -39 33z" />
<glyph unicode="y" horiz-adv-x="815" d="M-20 1430q0 32 36 32h168q55 0 70 -49l129 -448q6 -21 23 -21q16 0 22 21l131 448q15 49 68 49h170q39 0 39 -32q0 -2 -5 -17l-262 -713q-18 -50 -18 -102v-545q0 -53 -53 -53h-185q-53 0 -53 53v547q0 64 -18 102l-260 711q-2 6 -2 17z" />
<glyph unicode="z" horiz-adv-x="874" d="M45 53v146q0 49 23 100l426 864q4 12 4 19q0 30 -35 30h-357q-53 0 -53 52v147q0 51 53 51h664q53 0 53 -51v-147q0 -52 -24 -101l-424 -864q-4 -12 -4 -18q0 -29 32 -29h375q51 0 51 -53v-146q0 -53 -51 -53h-682q-51 0 -51 53z" />
<glyph unicode="{" horiz-adv-x="608" d="M41 580v75q0 31 31 31h14q84 0 84 84v678q0 190 168 190h207q53 0 53 -53v-31q0 -53 -53 -53h-31q-84 0 -84 -108v-600q0 -77 -41 -127q-39 -45 -104 -48q145 -9 145 -176v-598q0 -110 84 -110h31q53 0 53 -53v-31q0 -53 -53 -53h-207q-168 0 -168 190v678q0 84 -84 84 h-14q-31 0 -31 31z" />
<glyph unicode="|" horiz-adv-x="548" d="M164 -350v1935q0 53 53 53h115q53 0 53 -53v-1935q0 -53 -53 -53h-115q-53 0 -53 53z" />
<glyph unicode="}" horiz-adv-x="608" d="M10 -319q0 53 53 53h31q84 0 84 110v598q0 167 144 176q-62 3 -103 50q-41 50 -41 125v600q0 108 -84 108h-31q-53 0 -53 53v31q0 53 53 53h207q168 0 168 -190v-678q0 -84 84 -84h15q30 0 30 -31v-75q0 -31 -30 -31h-15q-84 0 -84 -84v-678q0 -190 -168 -190h-207 q-53 0 -53 53v31z" />
<glyph unicode="~" horiz-adv-x="937" d="M145 752q0 86 53 138t140 52q46 0 115 -29q67 -28 75 -28q43 0 43 43q0 14 11 14h129q14 0 14 -16q0 -87 -53.5 -139t-141.5 -52q-35 0 -104 29q-66 29 -80 29q-49 0 -49 -43q0 -15 -12 -15h-129q-11 0 -11 17z" />
<glyph unicode="&#xa1;" horiz-adv-x="442" d="M92 51v506q0 43 4 105l29 321q3 53 57 53h78q54 0 57 -53l29 -321q4 -62 4 -105v-506q0 -51 -53 -51h-154q-51 0 -51 51zM92 1225v184q0 53 51 53h154q53 0 53 -53v-184q0 -51 -53 -51h-154q-51 0 -51 51z" />
<glyph unicode="&#xa2;" horiz-adv-x="806" d="M61 319v396q0 125 70 212t191 113v131q0 52 53 52h84q53 0 53 -52v-131q116 -26 180 -113t64 -212v-39q0 -53 -54 -53h-137q-53 0 -53 53v53q0 109 -92 109q-98 0 -98 -109v-426q0 -106 98 -106q92 0 92 106v53q0 54 53 54h137q54 0 54 -54v-37q0 -126 -67 -214 t-185 -113v-109q0 -53 -53 -53h-84q-54 0 -54 53v113q-118 26 -185 112.5t-67 210.5z" />
<glyph unicode="&#xa3;" horiz-adv-x="1021" d="M31 668v98q0 53 51 53h125q-57 134 -57 254q0 187 104 299.5t285 112.5q173 0 277 -99t104 -268v-84q0 -53 -54 -53h-168q-53 0 -53 53v78q0 135 -106 135q-107 0 -107 -137q0 -138 72 -291h264q53 0 53 -53v-98q0 -52 -53 -52h-162q39 -91 39 -184q0 -89 -41 -182 q-1 -1 -2 -4.5t-2 -5.5l6 -13q39 -45 86 -45q62 0 62 113v53q0 55 53 55h151q54 0 54 -55v-22q0 -147 -72 -244q-79 -107 -223 -107q-97 0 -176 76q-17 10 -25 10q-12 0 -22 -10q-76 -76 -177 -76q-103 0 -170 52q-73 55 -73 153q0 94 58 158.5t147 64.5q62 0 98 -20 q17 -9 20 10q9 78 -80 223h-235q-51 0 -51 52zM272 188q0 -45 54 -45q49 0 49 54q-23 39 -56 39q-47 0 -47 -48z" />
<glyph unicode="&#xa4;" horiz-adv-x="1007" d="M10 569v56q0 51 53 51h62v106h-62q-53 0 -53 54v55q0 51 53 51h62v154q0 177 121 286q115 103 297 103q184 0 293.5 -105t109.5 -284v-138q0 -53 -51 -53h-176q-53 0 -53 53v138q0 61 -33.5 99t-89.5 38q-129 0 -129 -137v-154h92q53 0 53 -51v-55q0 -54 -53 -54h-92 v-106h92q53 0 53 -51v-56q0 -53 -53 -53h-92v-151q0 -62 35 -100t94 -38q56 0 89.5 38.5t33.5 99.5v137q0 53 53 53h176q51 0 51 -53v-137q0 -177 -111 -283.5t-292 -106.5q-179 0 -299 105q-119 107 -119 285v151h-62q-53 0 -53 53z" />
<glyph unicode="&#xa5;" horiz-adv-x="815" d="M-20 1430q0 32 36 32h170q53 0 68 -49l129 -448q6 -21 23 -21q16 0 22 21l131 448q15 49 70 49h168q39 0 39 -32q0 -2 -5 -17l-231 -629h74q53 0 53 -53v-53q0 -53 -53 -53h-121v-15q-2 -6 -2 -12v-49h123q53 0 53 -53v-56q0 -51 -53 -51h-123v-336q0 -53 -53 -53h-185 q-51 0 -51 53v336h-121q-53 0 -53 51v56q0 53 53 53h121v51q0 19 -2 25h-119q-53 0 -53 53v53q0 53 53 53h72l-231 629q-2 6 -2 17z" />
<glyph unicode="&#xa6;" horiz-adv-x="548" d="M164 -352v772q0 53 51 53h117q53 0 53 -53v-772q0 -51 -53 -51h-117q-51 0 -51 51zM164 815v770q0 53 51 53h117q53 0 53 -53v-770q0 -53 -53 -53h-117q-51 0 -51 53z" />
<glyph unicode="&#xa7;" horiz-adv-x="778" d="M51 260v45q0 53 53 53h129q52 0 52 -53v-31q0 -96 106 -96q98 0 98 82q0 65 -83 115l-181 100q-159 99 -159 266q0 25 2 35q0 11 2 15q18 116 123 184q-111 91 -111 227q0 133 94 209q89 74 223 74t226 -80q98 -85 98 -217v-51q0 -52 -51 -52h-119q-51 0 -51 52v39 q0 108 -101 108q-90 0 -90 -80q0 -51 54 -96q41 -32 147 -92q97 -57 145 -105q80 -83 80 -194q0 -145 -145 -219q145 -109 145 -252q0 -130 -112 -205q-101 -66 -234 -66q-136 0 -233 72q-107 79 -107 213zM301 743q0 -43 27.5 -70.5t70.5 -27.5q41 0 69 27.5t28 68.5 q0 38 -27.5 65.5t-65.5 27.5q-102 0 -102 -91z" />
<glyph unicode="&#xa8;" horiz-adv-x="757" d="M82 1231v123q0 53 53 53h131q53 0 53 -53v-123q0 -53 -53 -53h-131q-53 0 -53 53zM440 1231v123q0 53 54 53h131q51 0 51 -53v-123q0 -53 -51 -53h-131q-54 0 -54 53z" />
<glyph unicode="&#xa9;" horiz-adv-x="1546" d="M61 737q0 315 197 527q203 221 512 221q308 0 512 -219q203 -218 203 -529q0 -310 -201 -526q-206 -221 -514 -221q-309 0 -512 221q-197 212 -197 526zM172 737q0 -265 164 -450q170 -191 434 -191q260 0 436 191q168 183 168 450q0 268 -166 455q-174 192 -438 192 q-263 0 -432 -190q-166 -187 -166 -457zM489 528v418q0 108 95 170q80 53 194 53t191 -53q86 -59 86 -170v-78q0 -30 -35 -30h-123q-35 0 -35 30v64q0 80 -84 80q-88 0 -88 -80v-387q0 -80 88 -80q84 0 84 80v61q0 31 35 31h123q35 0 35 -31v-78q0 -111 -86 -170 q-77 -53 -191 -53t-194 53q-95 62 -95 170z" />
<glyph unicode="&#xaa;" horiz-adv-x="612" d="M82 991q0 99 78 156q49 37 162 67q30 9 30 41v33q0 66 -57 66t-57 -66v-18q0 -33 -31 -33h-86q-33 0 -33 33v8q0 93 58.5 150t152.5 57q101 0 157 -61.5t56 -166.5v-294q0 -52 16 -84q10 -21 2 -29q-8 -14 -36 -14h-74q-27 0 -43 22l-10 16q-3 7 -13 7t-14 -4 q-64 -52 -121 -52q-60 0 -102 54q-35 47 -35 112zM244 999q0 -55 45 -55q63 0 63 72v88q0 11 -10 14q-8 0 -10 -2q-88 -30 -88 -117z" />
<glyph unicode="&#xab;" horiz-adv-x="1136" d="M61 748q0 22 13 45l295 481q15 24 43 24q15 0 28 -8l123 -73q29 -16 29 -41q0 -15 -12 -33l-224 -350q-12 -18 -12 -45q0 -25 12 -43l226 -353q10 -17 10 -33q0 -23 -27 -38l-123 -76q-11 -8 -30 -8q-29 3 -41 24l-297 481q-13 23 -13 46zM535 748q0 24 12 45l295 481 q15 24 43 24q15 0 28 -8l123 -73q29 -16 29 -41q0 -15 -12 -33l-224 -350q-12 -18 -12 -45q0 -25 12 -43l226 -353q10 -17 10 -33q0 -23 -27 -38l-123 -76q-11 -8 -32 -8q-29 3 -41 24l-295 481q-12 21 -12 46z" />
<glyph unicode="&#xac;" horiz-adv-x="989" d="M66 770q0 21 16 37l299 299q16 16 37 16t37 -16l12 -12q18 -18 18 -37t-18 -37l-154 -156q-12 -12 -12 -20q0 -17 29 -17h526q51 0 51 -51v-10q0 -53 -51 -53h-528q-27 0 -27 -15q0 -10 12 -22l154 -156q18 -18 18 -37t-18 -37l-12 -12q-16 -16 -37 -16t-37 16l-299 299 q-16 16 -16 37z" />
<glyph unicode="&#xad;" horiz-adv-x="712" d="M82 569v146q0 53 53 53h443q53 0 53 -53v-146q0 -53 -53 -53h-443q-53 0 -53 53z" />
<glyph unicode="&#xae;" horiz-adv-x="1546" d="M61 737q0 316 199 527q203 221 512 221q308 0 514 -221q199 -214 199 -527q0 -312 -199 -526q-206 -221 -514 -221q-309 0 -512 221q-199 211 -199 526zM172 737q0 -266 166 -450q170 -191 434 -191q263 0 436 191q166 184 166 450q0 270 -164 455q-171 192 -438 192 q-263 0 -436 -194q-164 -185 -164 -453zM492 348v778q0 29 34 29h260q125 0 201 -55q86 -62 86 -180q0 -123 -100 -183q-10 -3 -10 -16q0 -7 10 -14q92 -59 92 -160v-88q0 -65 22 -101q9 -12 3 -26q-9 -15 -35 -15h-99q-90 0 -90 140v102q0 105 -108 105h-31q-37 0 -37 -31 v-285q0 -31 -37 -31h-127q-34 0 -34 31zM690 819q0 -31 35 -31h45q104 0 104 119q0 59 -23 81t-81 22h-45q-35 0 -35 -31v-160z" />
<glyph unicode="&#xaf;" horiz-adv-x="755" d="M82 1286v123q0 53 51 53h490q51 0 51 -53v-123q0 -53 -51 -53h-490q-51 0 -51 53z" />
<glyph unicode="&#xb0;" horiz-adv-x="608" d="M41 1221q0 108 78 186t186 78q106 0 184 -78t78 -186q0 -109 -78 -187q-76 -76 -184 -76q-110 0 -186 76q-78 78 -78 187zM186 1221q0 -49 35 -84t84 -35t84 35t35 84q0 50 -35 85t-84 35t-84 -35t-35 -85z" />
<glyph unicode="&#xb1;" horiz-adv-x="1015" d="M82 53v123q0 51 53 51h748q51 0 51 -51v-123q0 -53 -51 -53h-748q-53 0 -53 53zM82 713v145q0 53 53 53h195q53 0 53 54v194q0 51 53 51h146q51 0 51 -51v-194q0 -54 53 -54h195q53 0 53 -53v-145q0 -54 -53 -54h-195q-53 0 -53 -51v-194q0 -54 -51 -54h-146 q-53 0 -53 54v194q0 51 -53 51h-195q-53 0 -53 54z" />
<glyph unicode="&#xb2;" horiz-adv-x="1462" d="M0 367v364h367v-364h364v-367h-364v367h-367zM0 1098v364h367v-364h364v-367h367v-364h364v-367h-364v367h-367v364h-364v367h-367zM731 1098v364h367v-364h364v-367h-364v367h-367z" />
<glyph unicode="&#xb3;" horiz-adv-x="1462" d="M0 367v364h367v-364h364v-367h-364v367h-367zM0 1098v364h367v-364h364v-367h367v-364h364v-367h-364v367h-367v364h-364v367h-367zM731 1098v364h367v-364h364v-367h-364v367h-367z" />
<glyph unicode="&#xb4;" horiz-adv-x="460" d="M84 1214l43 172q12 52 66 52h153q33 0 33 -29q0 -6 -4 -18l-90 -181q-21 -47 -76 -47h-86q-51 0 -39 51z" />
<glyph unicode="&#xb6;" horiz-adv-x="714" d="M20 1126q0 127 60 224q69 112 190 112h338q15 0 15 -14v-1434q0 -14 -15 -14h-106q-17 0 -17 14v1342h-84v-1342q0 -14 -14 -14h-117q-14 0 -14 14v779q-116 9 -180 116q-56 95 -56 217z" />
<glyph unicode="&#xb7;" horiz-adv-x="423" d="M82 502v184q0 51 53 51h154q53 0 53 -51v-184q0 -53 -53 -53h-154q-53 0 -53 53z" />
<glyph unicode="&#xb8;" horiz-adv-x="659" d="M82 -461q4 46 4 51q6 38 41 23q87 -37 160 -37q110 0 110 113q0 100 -116 100q-62 0 -103 -8q-25 -5 -43 12.5t-14 42.5q27 141 41 203h164q-23 -77 -23 -78q-9 -39 29 -39h12q106 0 170 -63t64 -168q0 -111 -84 -183q-81 -69 -199 -69q-99 0 -182 45q-34 18 -31 55z" />
<glyph unicode="&#xb9;" horiz-adv-x="1462" d="M0 367v364h367v-364h364v-367h-364v367h-367zM0 1098v364h367v-364h364v-367h367v-364h364v-367h-364v367h-367v364h-364v367h-367zM731 1098v364h367v-364h364v-367h-364v367h-367z" />
<glyph unicode="&#xba;" horiz-adv-x="606" d="M82 1032v246q0 96 61 151.5t160 55.5t160 -55.5t61 -151.5v-246q0 -96 -61 -151.5t-160 -55.5t-160 55.5t-61 151.5zM242 1028q0 -65 61 -65q62 0 62 65v254q0 66 -62 66q-61 0 -61 -66v-254z" />
<glyph unicode="&#xbb;" horiz-adv-x="1136" d="M72 319q0 16 10 33l225 353q12 18 12 43q0 27 -12 45l-223 350q-12 18 -12 33q0 25 28 41l123 73q13 8 29 8q28 0 43 -24l295 -481q12 -21 12 -45q0 -25 -12 -46l-295 -481q-12 -21 -41 -24q-22 0 -33 8l-123 76q-26 14 -26 38zM545 319q0 16 10 33l225 353q13 19 13 43 q0 26 -13 45l-223 350q-12 18 -12 33q0 25 28 41l123 73q13 8 29 8q28 0 43 -24l295 -481q12 -21 12 -45q0 -25 -12 -46l-297 -481q-12 -21 -41 -24q-20 0 -31 8l-123 76q-26 14 -26 38z" />
<glyph unicode="&#xbc;" horiz-adv-x="1462" d="M0 367v364h367v-364h364v-367h-364v367h-367zM0 1098v364h367v-364h364v-367h367v-364h364v-367h-364v367h-367v364h-364v367h-367zM731 1098v364h367v-364h364v-367h-364v367h-367z" />
<glyph unicode="&#xbd;" horiz-adv-x="1462" d="M0 367v364h367v-364h364v-367h-364v367h-367zM0 1098v364h367v-364h364v-367h367v-364h364v-367h-364v367h-367v364h-364v367h-367zM731 1098v364h367v-364h364v-367h-364v367h-367z" />
<glyph unicode="&#xbe;" horiz-adv-x="1462" d="M0 367v364h367v-364h364v-367h-364v367h-367zM0 1098v364h367v-364h364v-367h367v-364h364v-367h-364v367h-367v364h-364v367h-367zM731 1098v364h367v-364h364v-367h-364v367h-367z" />
<glyph unicode="&#xbf;" horiz-adv-x="880" d="M51 334q0 235 137 397q146 175 146 283q0 51 -2 59q-6 39 30 39h148q34 0 43 -31q16 -53 16 -123q0 -132 -159 -325q-50 -59 -68 -141q-12 -59 -12 -158q0 -121 110 -121q123 0 123 160v92q0 53 51 53h160q50 0 53 -53l2 -92q3 -177 -102 -285q-108 -111 -281 -111 q-169 0 -280 91q-115 95 -115 266zM295 1225v184q0 53 53 53h154q53 0 53 -53v-184q0 -51 -53 -51h-154q-53 0 -53 51z" />
<glyph unicode="&#xc0;" horiz-adv-x="970" d="M10 51l291 1360q9 51 64 51h18l-43 86q-4 12 -4 19q0 28 33 28h153q54 0 66 -51l20 -82q55 0 64 -51l291 -1360q9 -51 -41 -51h-187q-52 0 -61 51l-43 232q-9 53 -62 53h-166q-52 0 -61 -53l-43 -232q-9 -51 -61 -51h-187q-50 0 -41 51zM397 598q-6 -51 45 -51h88 q49 0 43 51l-63 477q-3 23 -25 23t-22 -23z" />
<glyph unicode="&#xc1;" horiz-adv-x="970" d="M10 51l291 1360q9 51 64 51h10l20 82q12 51 66 51h153q33 0 33 -28q0 -7 -4 -19l-43 -86h8q55 0 64 -51l291 -1360q9 -51 -41 -51h-187q-52 0 -61 51l-43 232q-9 53 -62 53h-166q-52 0 -61 -53l-43 -232q-9 -51 -61 -51h-187q-50 0 -41 51zM397 598q-6 -51 45 -51h88 q49 0 43 51l-63 477q-3 23 -25 23t-22 -23z" />
<glyph unicode="&#xc2;" horiz-adv-x="970" d="M10 51l277 1297h-66q-13 0 -16 8q-3 10 2 16l203 215q19 19 41 19h84q10 0 34 -17q60 -70 197 -217q8 -8 2 -16q-3 -8 -18 -8h-64l277 -1297q9 -51 -41 -51h-187q-52 0 -61 51l-43 232q-9 53 -62 53h-166q-52 0 -61 -53l-43 -232q-9 -51 -61 -51h-187q-50 0 -41 51z M397 598q-6 -51 45 -51h88q49 0 43 51l-63 477q-3 23 -25 23t-22 -23z" />
<glyph unicode="&#xc3;" horiz-adv-x="970" d="M10 51l277 1297h-60q-10 0 -10 16q0 86 53 138t140 52q47 0 114 -28q69 -29 76 -29q43 0 43 43q0 14 10 14h129q15 0 15 -16q0 -137 -115 -178l281 -1309q9 -51 -41 -51h-187q-52 0 -61 51l-43 232q-9 53 -62 53h-166q-52 0 -61 -53l-43 -232q-9 -51 -61 -51h-187 q-50 0 -41 51zM397 598q-6 -51 45 -51h88q49 0 43 51l-63 477q-3 23 -25 23t-22 -23z" />
<glyph unicode="&#xc4;" horiz-adv-x="970" d="M10 51l273 1270h-41q-54 0 -54 53v123q0 53 54 53h131q53 0 53 -53v-35h121v35q0 53 53 53h131q51 0 51 -53v-123q0 -53 -51 -53h-41l273 -1270q9 -51 -41 -51h-187q-52 0 -61 51l-43 232q-9 53 -62 53h-166q-52 0 -61 -53l-43 -232q-9 -51 -61 -51h-187q-50 0 -41 51z M397 598q-6 -51 45 -51h88q49 0 43 51l-63 477q-3 23 -25 23t-22 -23z" />
<glyph unicode="&#xc5;" horiz-adv-x="970" d="M10 51l291 1360q9 38 37 47q-8 21 -8 53q0 66 46.5 113t112.5 47t113 -47t47 -113q0 -25 -10 -55q24 -12 33 -45l291 -1360q9 -51 -41 -51h-187q-52 0 -61 51l-43 232q-9 53 -62 53h-166q-52 0 -61 -53l-43 -232q-9 -51 -61 -51h-187q-50 0 -41 51zM397 598 q-6 -51 45 -51h88q49 0 43 51l-63 477q-3 23 -25 23t-22 -23zM432 1511q0 -33 23 -49h69q23 16 23 49q0 60 -58 60q-57 0 -57 -60z" />
<glyph unicode="&#xc6;" horiz-adv-x="1507" d="M-10 35q0 10 2 16l479 1360q17 51 72 51h848q53 0 53 -51v-147q0 -52 -53 -52h-338q-52 0 -52 -53v-207q0 -53 52 -53h278q51 0 51 -53v-146q0 -53 -51 -53h-278q-52 0 -52 -53v-291q0 -51 52 -51h360q53 0 53 -53v-146q0 -53 -53 -53h-649q-53 0 -53 53v230q0 53 -54 53 h-233q-55 0 -70 -53l-73 -232q-15 -51 -70 -51h-184q-37 0 -37 35zM455 582q0 -35 37 -35h170q49 0 49 51v567q0 47 -29 47q-32 0 -43 -38q-22 -53 -60.5 -153.5t-54.5 -139.5q-69 -172 -69 -299z" />
<glyph unicode="&#xc7;" horiz-adv-x="1013" d="M80 373v729q0 179 123 287q114 102 297 102q184 0 293.5 -105t109.5 -284v-137q0 -54 -53 -54h-176q-53 0 -53 54v139q0 59 -33 98t-88 39q-61 0 -96 -37.5t-35 -99.5v-731q0 -62 35 -99.5t96 -37.5q56 0 88.5 38t32.5 99v137q0 53 53 53h176q53 0 53 -53v-137 q0 -147 -78 -246.5t-217 -128.5q1 -8 10 -37.5t9 -34.5q0 -35 -49 -35h-123q-51 0 -72 107q-140 31 -221.5 132t-81.5 243z" />
<glyph unicode="&#xc8;" horiz-adv-x="888" d="M92 53v1358q0 51 53 51h166l-43 86q-4 12 -4 19q0 28 33 28h154q53 0 65 -51l21 -82h235q53 0 53 -51v-147q0 -52 -53 -52h-338q-51 0 -51 -53v-207q0 -53 51 -53h277q53 0 53 -53v-146q0 -53 -53 -53h-277q-51 0 -51 -51v-293q0 -51 51 -51h361q53 0 53 -53v-146 q0 -53 -53 -53h-650q-53 0 -53 53z" />
<glyph unicode="&#xc9;" horiz-adv-x="888" d="M92 53v1358q0 51 53 51h213l21 82q12 51 65 51h154q33 0 33 -28q0 -7 -4 -19l-43 -86h188q53 0 53 -51v-147q0 -52 -53 -52h-338q-51 0 -51 -53v-207q0 -53 51 -53h277q53 0 53 -53v-146q0 -53 -53 -53h-277q-51 0 -51 -51v-293q0 -51 51 -51h361q53 0 53 -53v-146 q0 -53 -53 -53h-650q-53 0 -53 53z" />
<glyph unicode="&#xca;" horiz-adv-x="888" d="M92 53v1358q0 51 53 51h121l119 125q19 19 41 19h84q11 0 35 -17l112 -127h115q53 0 53 -51v-147q0 -52 -53 -52h-338q-51 0 -51 -53v-207q0 -53 51 -53h277q53 0 53 -53v-146q0 -53 -53 -53h-277q-51 0 -51 -51v-293q0 -51 51 -51h361q53 0 53 -53v-146q0 -53 -53 -53 h-650q-53 0 -53 53z" />
<glyph unicode="&#xcb;" horiz-adv-x="888" d="M92 53v1358q0 51 53 51h9v35q0 53 53 53h131q53 0 53 -53v-35h121v35q0 53 53 53h131q52 0 52 -53v-35h24q53 0 53 -51v-147q0 -52 -53 -52h-338q-51 0 -51 -53v-207q0 -53 51 -53h277q53 0 53 -53v-146q0 -53 -53 -53h-277q-51 0 -51 -51v-293q0 -51 51 -51h361 q53 0 53 -53v-146q0 -53 -53 -53h-650q-53 0 -53 53z" />
<glyph unicode="&#xcc;" horiz-adv-x="485" d="M84 1567q0 28 33 28h153q54 0 66 -51l20 -86q31 -9 31 -47v-1358q0 -53 -53 -53h-182q-54 0 -54 53v1358q0 40 35 49l-45 88q-4 12 -4 19z" />
<glyph unicode="&#xcd;" horiz-adv-x="485" d="M98 53v1358q0 43 39 49l21 84q12 51 65 51h154q33 0 33 -28q0 -7 -4 -19l-46 -90q27 -9 27 -47v-1358q0 -53 -53 -53h-182q-54 0 -54 53z" />
<glyph unicode="&#xce;" horiz-adv-x="485" d="M-39 1335q-4 11 2 17l117 123l86 92q15 18 41 18h84q19 0 35 -16q53 -62 196 -217q8 -8 2 -17q-3 -8 -18 -8h-119v-1274q0 -53 -53 -53h-182q-54 0 -54 53v1274h-121q-13 0 -16 8z" />
<glyph unicode="&#xcf;" horiz-adv-x="485" d="M-55 1374v123q0 53 53 53h131q53 0 53 -53v-35h121v35q0 53 53 53h131q54 0 54 -53v-123q0 -53 -52 -53h-102v-1268q0 -53 -53 -53h-182q-54 0 -54 53v1268h-98q-55 0 -55 53z" />
<glyph unicode="&#xd0;" horiz-adv-x="1048" d="M16 670v114q0 54 54 54h84v573q0 51 53 51h350q180 0 299 -104q121 -106 121 -283v-686q0 -176 -121 -285q-119 -104 -299 -104h-350q-53 0 -53 53v563h-84q-54 0 -54 54zM442 303q0 -51 54 -51h61q60 0 94.5 37.5t34.5 99.5v686q0 137 -129 137h-61q-54 0 -54 -53v-321 h70q53 0 53 -54v-114q0 -54 -53 -54h-70v-313z" />
<glyph unicode="&#xd1;" horiz-adv-x="1044" d="M92 53v1358q0 51 53 51h138q54 72 155 72q46 0 115 -29q67 -28 76 -28q43 0 43 43q0 14 10 14h129q14 0 14 -16q0 -29 -6 -56h82q51 0 51 -51v-1358q0 -53 -51 -53h-178q-55 0 -70 49l-239 739q-3 15 -21 15t-18 -19v-731q0 -53 -53 -53h-177q-53 0 -53 53zM412 1376 l221 -688q6 -16 18 -16q21 0 21 20v637q-12 -2 -41 -2q-36 0 -105 29q-64 28 -80 28q-23 0 -34 -8z" />
<glyph unicode="&#xd2;" d="M72 365v731q0 140 79 241.5t214 132.5l-39 78q-4 12 -4 19q0 28 32 28h154q53 0 65 -51l17 -67q146 -26 232.5 -129.5t86.5 -251.5v-731q0 -176 -121 -285q-120 -105 -299 -105t-299 105q-118 106 -118 285zM360 365q0 -62 35 -100t94 -38t94 38t35 100v731 q0 137 -129 137t-129 -137v-731z" />
<glyph unicode="&#xd3;" d="M72 365v731q0 143 82 245.5t221 133.5l18 69q12 51 66 51h153q33 0 33 -28q0 -7 -4 -19l-37 -73q139 -31 222 -133.5t83 -245.5v-731q0 -176 -121 -285q-120 -105 -299 -105t-299 105q-118 106 -118 285zM360 365q0 -62 35 -100t94 -38t94 38t35 100v731q0 137 -129 137 t-129 -137v-731z" />
<glyph unicode="&#xd4;" d="M72 365v731q0 240 202 342l54 57l86 92q16 19 41 19h84q17 0 34 -17q53 -61 140 -153q196 -108 196 -340v-731q0 -176 -121 -285q-120 -105 -299 -105t-299 105q-118 106 -118 285zM360 365q0 -62 35 -100t94 -38t94 38t35 100v731q0 137 -129 137t-129 -137v-731z" />
<glyph unicode="&#xd5;" d="M72 365v731q0 185 131 295q6 74 58.5 118.5t131.5 44.5q48 0 115 -28q69 -29 76 -29q43 0 43 43q0 14 10 14h129q14 0 14 -16q0 -72 -37 -121q166 -111 166 -321v-731q0 -176 -121 -285q-120 -105 -299 -105t-299 105q-118 106 -118 285zM360 365q0 -62 35 -100t94 -38 t94 38t35 100v731q0 137 -129 137t-129 -137v-731z" />
<glyph unicode="&#xd6;" d="M72 365v731q0 172 114 280l7 6v136q0 53 53 53h131q53 0 53 -53v-35q18 2 59 2q44 0 62 -2v35q0 53 53 53h131q53 0 53 -53v-136l7 -6q114 -108 114 -280v-731q0 -176 -121 -285q-120 -105 -299 -105t-299 105q-118 106 -118 285zM360 365q0 -62 35 -100t94 -38t94 38 t35 100v731q0 137 -129 137t-129 -137v-731z" />
<glyph unicode="&#xd7;" horiz-adv-x="786" d="M23 481q0 19 18 37l139 137q17 17 17 37q0 22 -17 39l-139 137q-18 18 -18 37t18 37l104 105q18 18 37 18t37 -18l137 -140q16 -16 37 -16q23 0 39 16l137 140q18 18 37 18t37 -18l102 -105q19 -19 19 -37t-19 -37l-137 -137q-16 -16 -16 -39q0 -21 16 -37l137 -137 q19 -19 19 -37t-19 -37l-102 -104q-18 -18 -37 -18t-37 18l-137 139q-17 17 -39 17q-20 0 -37 -17l-137 -139q-18 -18 -37 -18t-37 18l-104 104q-18 18 -18 37z" />
<glyph unicode="&#xd8;" horiz-adv-x="983" d="M72 365v731q0 181 118 284q120 105 302 105q101 0 188 -35l29 84q12 37 43 37q59 0 59 -55q0 -11 -2 -17l-37 -104q139 -112 139 -299v-731q0 -177 -120 -285q-120 -105 -299 -105q-102 0 -189 37l-29 -84q-12 -37 -47 -37q-26 0 -42 22t-9 48l35 105q-139 112 -139 299z M362 512l230 678q-34 43 -100 43q-130 0 -130 -137v-584zM391 272q33 -45 101 -45q59 0 94 38t35 100v583z" />
<glyph unicode="&#xd9;" horiz-adv-x="995" d="M86 365v1044q0 53 53 53h185q51 0 51 -53v-1044q0 -138 123 -138q120 0 120 138v1044q0 53 54 53h184q53 0 53 -53v-1044q0 -178 -116 -285q-114 -105 -295 -105q-180 0 -297 105q-115 109 -115 285zM334 1567q0 28 33 28h153q46 0 66 -51l22 -49q4 -12 4 -20 q0 -31 -43 -31h-106q-35 0 -76 47l-49 57q-4 4 -4 19z" />
<glyph unicode="&#xda;" horiz-adv-x="995" d="M86 365v1044q0 53 53 53h185q51 0 51 -53v-1044q0 -138 123 -138q120 0 120 138v1044q0 53 54 53h184q53 0 53 -53v-1044q0 -178 -116 -285q-114 -105 -295 -105q-180 0 -297 105q-115 109 -115 285zM387 1495q0 13 8 21l23 28q39 51 65 51h154q33 0 33 -28q0 -15 -4 -19 l-50 -37q-3 -3 -13.5 -13t-15 -14t-13 -10t-16.5 -8t-17 -2h-107q-47 0 -47 31z" />
<glyph unicode="&#xdb;" horiz-adv-x="995" d="M80 369v1044q0 53 53 53h184q52 0 52 -53v-1044q0 -138 123 -138q120 0 120 138v1044q0 53 54 53h184q53 0 53 -53v-1044q0 -170 -110 -277q-112 -112 -301 -112q-192 0 -304 112q-108 108 -108 277zM209 1495q-3 9 2 16l121 129h321l117 -129q8 -8 2 -16q-3 -8 -18 -8 h-162q-14 0 -25 8q-12 15 -65 72q-2 2 -8 2q-5 0 -7 -2q-14 -11 -77 -74q-9 -6 -21 -6h-164q-13 0 -16 8z" />
<glyph unicode="&#xdc;" horiz-adv-x="995" d="M86 365v1044q0 53 53 53h62v35q0 53 53 53h131q53 0 53 -53v-123q0 -53 -53 -53h-10v-956q0 -138 123 -138q120 0 120 138v956h-6q-53 0 -53 53v123q0 53 53 53h131q52 0 52 -53v-35h61q53 0 53 -53v-1044q0 -178 -116 -285q-114 -105 -295 -105q-180 0 -297 105 q-115 109 -115 285z" />
<glyph unicode="&#xdd;" horiz-adv-x="815" d="M-20 1430q0 32 36 32h168q55 0 70 -49l129 -448q6 -21 23 -21q16 0 22 21l131 448q15 49 68 49h170q39 0 39 -32q0 -2 -5 -17l-262 -713q-18 -50 -18 -102v-545q0 -53 -53 -53h-185q-53 0 -53 53v547q0 64 -18 102l-260 711q-2 6 -2 17zM291 1475q0 8 4 20l22 49 q20 51 66 51h154q32 0 32 -28q0 -15 -4 -19l-49 -57q-41 -47 -76 -47h-106q-43 0 -43 31z" />
<glyph unicode="&#xde;" horiz-adv-x="845" d="M92 53v1358q0 51 53 51h154q53 0 53 -51v-321h152q160 0 251 -83t91 -237v-84q0 -153 -91 -236t-251 -83h-152v-314q0 -53 -53 -53h-154q-53 0 -53 53zM352 571h152q98 0 98 107v98q0 109 -98 109h-152v-314z" />
<glyph unicode="&#xdf;" horiz-adv-x="1030" d="M82 53v983q0 212 113 330.5t321 118.5q188 0 301 -113q117 -111 117 -297q0 -200 -121 -295q-18 -15 -18 -28q0 -10 18 -25q145 -112 145 -332q0 -183 -109.5 -289t-295.5 -106h-68q-53 0 -53 53v160q0 53 53 53h54q60 0 94.5 37.5t34.5 99.5v93q0 137 -129 137h-54 q-53 0 -53 51v117q0 53 53 53h31q60 0 94.5 37.5t34.5 99.5v60q0 184 -137 184q-89 0 -119 -80q-18 -49 -18 -158v-944q0 -53 -54 -53h-182q-53 0 -53 53z" />
<glyph unicode="&#xe0;" horiz-adv-x="970" d="M10 51l291 1360q9 51 64 51h18l-43 86q-4 12 -4 19q0 28 33 28h153q54 0 66 -51l20 -82q55 0 64 -51l291 -1360q9 -51 -41 -51h-187q-52 0 -61 51l-43 232q-9 53 -62 53h-166q-52 0 -61 -53l-43 -232q-9 -51 -61 -51h-187q-50 0 -41 51zM397 598q-6 -51 45 -51h88 q49 0 43 51l-63 477q-3 23 -25 23t-22 -23z" />
<glyph unicode="&#xe1;" horiz-adv-x="970" d="M10 51l291 1360q9 51 64 51h10l20 82q12 51 66 51h153q33 0 33 -28q0 -7 -4 -19l-43 -86h8q55 0 64 -51l291 -1360q9 -51 -41 -51h-187q-52 0 -61 51l-43 232q-9 53 -62 53h-166q-52 0 -61 -53l-43 -232q-9 -51 -61 -51h-187q-50 0 -41 51zM397 598q-6 -51 45 -51h88 q49 0 43 51l-63 477q-3 23 -25 23t-22 -23z" />
<glyph unicode="&#xe2;" horiz-adv-x="970" d="M10 51l277 1297h-66q-13 0 -16 8q-3 10 2 16l203 215q19 19 41 19h84q10 0 34 -17q60 -70 197 -217q8 -8 2 -16q-3 -8 -18 -8h-64l277 -1297q9 -51 -41 -51h-187q-52 0 -61 51l-43 232q-9 53 -62 53h-166q-52 0 -61 -53l-43 -232q-9 -51 -61 -51h-187q-50 0 -41 51z M397 598q-6 -51 45 -51h88q49 0 43 51l-63 477q-3 23 -25 23t-22 -23z" />
<glyph unicode="&#xe3;" horiz-adv-x="970" d="M10 51l277 1297h-60q-10 0 -10 16q0 86 53 138t140 52q47 0 114 -28q69 -29 76 -29q43 0 43 43q0 14 10 14h129q15 0 15 -16q0 -137 -115 -178l281 -1309q9 -51 -41 -51h-187q-52 0 -61 51l-43 232q-9 53 -62 53h-166q-52 0 -61 -53l-43 -232q-9 -51 -61 -51h-187 q-50 0 -41 51zM397 598q-6 -51 45 -51h88q49 0 43 51l-63 477q-3 23 -25 23t-22 -23z" />
<glyph unicode="&#xe4;" horiz-adv-x="970" d="M10 51l273 1270h-41q-54 0 -54 53v123q0 53 54 53h131q53 0 53 -53v-35h121v35q0 53 53 53h131q51 0 51 -53v-123q0 -53 -51 -53h-41l273 -1270q9 -51 -41 -51h-187q-52 0 -61 51l-43 232q-9 53 -62 53h-166q-52 0 -61 -53l-43 -232q-9 -51 -61 -51h-187q-50 0 -41 51z M397 598q-6 -51 45 -51h88q49 0 43 51l-63 477q-3 23 -25 23t-22 -23z" />
<glyph unicode="&#xe5;" horiz-adv-x="970" d="M10 51l291 1360q9 38 37 47q-8 21 -8 53q0 66 46.5 113t112.5 47t113 -47t47 -113q0 -25 -10 -55q24 -12 33 -45l291 -1360q9 -51 -41 -51h-187q-52 0 -61 51l-43 232q-9 53 -62 53h-166q-52 0 -61 -53l-43 -232q-9 -51 -61 -51h-187q-50 0 -41 51zM397 598 q-6 -51 45 -51h88q49 0 43 51l-63 477q-3 23 -25 23t-22 -23zM432 1511q0 -33 23 -49h69q23 16 23 49q0 60 -58 60q-57 0 -57 -60z" />
<glyph unicode="&#xe6;" horiz-adv-x="1507" d="M-10 35q0 10 2 16l479 1360q17 51 72 51h848q53 0 53 -51v-147q0 -52 -53 -52h-338q-52 0 -52 -53v-207q0 -53 52 -53h278q51 0 51 -53v-146q0 -53 -51 -53h-278q-52 0 -52 -53v-291q0 -51 52 -51h360q53 0 53 -53v-146q0 -53 -53 -53h-649q-53 0 -53 53v230q0 53 -54 53 h-233q-55 0 -70 -53l-73 -232q-15 -51 -70 -51h-184q-37 0 -37 35zM455 582q0 -35 37 -35h170q49 0 49 51v567q0 47 -29 47q-32 0 -43 -38q-22 -53 -60.5 -153.5t-54.5 -139.5q-69 -172 -69 -299z" />
<glyph unicode="&#xe7;" horiz-adv-x="1013" d="M80 373v729q0 179 123 287q114 102 297 102q184 0 293.5 -105t109.5 -284v-137q0 -54 -53 -54h-176q-53 0 -53 54v139q0 59 -33 98t-88 39q-61 0 -96 -37.5t-35 -99.5v-731q0 -62 35 -99.5t96 -37.5q56 0 88.5 38t32.5 99v137q0 53 53 53h176q53 0 53 -53v-137 q0 -147 -78 -246.5t-217 -128.5q1 -8 10 -37.5t9 -34.5q0 -35 -49 -35h-123q-51 0 -72 107q-140 31 -221.5 132t-81.5 243z" />
<glyph unicode="&#xe8;" horiz-adv-x="888" d="M92 53v1358q0 51 53 51h166l-43 86q-4 12 -4 19q0 28 33 28h154q53 0 65 -51l21 -82h235q53 0 53 -51v-147q0 -52 -53 -52h-338q-51 0 -51 -53v-207q0 -53 51 -53h277q53 0 53 -53v-146q0 -53 -53 -53h-277q-51 0 -51 -51v-293q0 -51 51 -51h361q53 0 53 -53v-146 q0 -53 -53 -53h-650q-53 0 -53 53z" />
<glyph unicode="&#xe9;" horiz-adv-x="888" d="M92 53v1358q0 51 53 51h213l21 82q12 51 65 51h154q33 0 33 -28q0 -7 -4 -19l-43 -86h188q53 0 53 -51v-147q0 -52 -53 -52h-338q-51 0 -51 -53v-207q0 -53 51 -53h277q53 0 53 -53v-146q0 -53 -53 -53h-277q-51 0 -51 -51v-293q0 -51 51 -51h361q53 0 53 -53v-146 q0 -53 -53 -53h-650q-53 0 -53 53z" />
<glyph unicode="&#xea;" horiz-adv-x="888" d="M92 53v1358q0 51 53 51h121l119 125q19 19 41 19h84q11 0 35 -17l112 -127h115q53 0 53 -51v-147q0 -52 -53 -52h-338q-51 0 -51 -53v-207q0 -53 51 -53h277q53 0 53 -53v-146q0 -53 -53 -53h-277q-51 0 -51 -51v-293q0 -51 51 -51h361q53 0 53 -53v-146q0 -53 -53 -53 h-650q-53 0 -53 53z" />
<glyph unicode="&#xeb;" horiz-adv-x="888" d="M92 53v1358q0 51 53 51h9v35q0 53 53 53h131q53 0 53 -53v-35h121v35q0 53 53 53h131q52 0 52 -53v-35h24q53 0 53 -51v-147q0 -52 -53 -52h-338q-51 0 -51 -53v-207q0 -53 51 -53h277q53 0 53 -53v-146q0 -53 -53 -53h-277q-51 0 -51 -51v-293q0 -51 51 -51h361 q53 0 53 -53v-146q0 -53 -53 -53h-650q-53 0 -53 53z" />
<glyph unicode="&#xec;" horiz-adv-x="485" d="M84 1567q0 28 33 28h153q54 0 66 -51l20 -86q31 -9 31 -47v-1358q0 -53 -53 -53h-182q-54 0 -54 53v1358q0 40 35 49l-45 88q-4 12 -4 19z" />
<glyph unicode="&#xed;" horiz-adv-x="485" d="M98 53v1358q0 43 39 49l21 84q12 51 65 51h154q33 0 33 -28q0 -7 -4 -19l-46 -90q27 -9 27 -47v-1358q0 -53 -53 -53h-182q-54 0 -54 53z" />
<glyph unicode="&#xee;" horiz-adv-x="485" d="M-39 1335q-4 11 2 17l117 123l86 92q15 18 41 18h84q19 0 35 -16q53 -62 196 -217q8 -8 2 -17q-3 -8 -18 -8h-119v-1274q0 -53 -53 -53h-182q-54 0 -54 53v1274h-121q-13 0 -16 8z" />
<glyph unicode="&#xef;" horiz-adv-x="485" d="M-55 1374v123q0 53 53 53h131q53 0 53 -53v-35h121v35q0 53 53 53h131q54 0 54 -53v-123q0 -53 -52 -53h-102v-1268q0 -53 -53 -53h-182q-54 0 -54 53v1268h-98q-55 0 -55 53z" />
<glyph unicode="&#xf0;" horiz-adv-x="835" d="M66 379v319q0 306 229 306q120 0 182 -103q10 -16 27 -16q18 0 18 28v15q0 85 -37 155l-45 -34q-16 -13 -32 -13q-22 0 -41 25l-25 33q-14 17 -14 34q0 21 24 39l41 31l-106 84q-19 16 -19 33q0 19 13 35l84 96q17 20 32 20q15 3 39 -14q88 -64 144 -117l51 37 q18 12 33 12q22 0 41 -22l26 -33q10 -13 10 -31q0 -29 -22 -45l-45 -32q100 -156 100 -445v-358q0 -443 -381 -443q-169 0 -254 123q-73 107 -73 281zM324 317q0 -120 92 -120q98 0 98 110v369q0 106 -92 106q-98 0 -98 -106v-359z" />
<glyph unicode="&#xf1;" horiz-adv-x="1044" d="M92 53v1358q0 51 53 51h138q54 72 155 72q46 0 115 -29q67 -28 76 -28q43 0 43 43q0 14 10 14h129q14 0 14 -16q0 -29 -6 -56h82q51 0 51 -51v-1358q0 -53 -51 -53h-178q-55 0 -70 49l-239 739q-3 15 -21 15t-18 -19v-731q0 -53 -53 -53h-177q-53 0 -53 53zM412 1376 l221 -688q6 -16 18 -16q21 0 21 20v637q-12 -2 -41 -2q-36 0 -105 29q-64 28 -80 28q-23 0 -34 -8z" />
<glyph unicode="&#xf2;" d="M72 365v731q0 140 79 241.5t214 132.5l-39 78q-4 12 -4 19q0 28 32 28h154q53 0 65 -51l17 -67q146 -26 232.5 -129.5t86.5 -251.5v-731q0 -176 -121 -285q-120 -105 -299 -105t-299 105q-118 106 -118 285zM360 365q0 -62 35 -100t94 -38t94 38t35 100v731 q0 137 -129 137t-129 -137v-731z" />
<glyph unicode="&#xf3;" d="M72 365v731q0 143 82 245.5t221 133.5l18 69q12 51 66 51h153q33 0 33 -28q0 -7 -4 -19l-37 -73q139 -31 222 -133.5t83 -245.5v-731q0 -176 -121 -285q-120 -105 -299 -105t-299 105q-118 106 -118 285zM360 365q0 -62 35 -100t94 -38t94 38t35 100v731q0 137 -129 137 t-129 -137v-731z" />
<glyph unicode="&#xf4;" d="M72 365v731q0 240 202 342l54 57l86 92q16 19 41 19h84q17 0 34 -17q53 -61 140 -153q196 -108 196 -340v-731q0 -176 -121 -285q-120 -105 -299 -105t-299 105q-118 106 -118 285zM360 365q0 -62 35 -100t94 -38t94 38t35 100v731q0 137 -129 137t-129 -137v-731z" />
<glyph unicode="&#xf5;" d="M72 365v731q0 185 131 295q6 74 58.5 118.5t131.5 44.5q48 0 115 -28q69 -29 76 -29q43 0 43 43q0 14 10 14h129q14 0 14 -16q0 -72 -37 -121q166 -111 166 -321v-731q0 -176 -121 -285q-120 -105 -299 -105t-299 105q-118 106 -118 285zM360 365q0 -62 35 -100t94 -38 t94 38t35 100v731q0 137 -129 137t-129 -137v-731z" />
<glyph unicode="&#xf6;" d="M72 365v731q0 172 114 280l7 6v136q0 53 53 53h131q53 0 53 -53v-35q18 2 59 2q44 0 62 -2v35q0 53 53 53h131q53 0 53 -53v-136l7 -6q114 -108 114 -280v-731q0 -176 -121 -285q-120 -105 -299 -105t-299 105q-118 106 -118 285zM360 365q0 -62 35 -100t94 -38t94 38 t35 100v731q0 137 -129 137t-129 -137v-731z" />
<glyph unicode="&#xf7;" horiz-adv-x="989" d="M66 770q0 21 16 37l299 299q16 16 37 16t37 -16l12 -12q18 -18 18 -37t-18 -37l-154 -156q-12 -12 -12 -20q0 -17 29 -17h526q51 0 51 -51v-10q0 -53 -51 -53h-528q-27 0 -27 -15q0 -10 12 -22l154 -156q18 -18 18 -37t-18 -37l-12 -12q-16 -16 -37 -16t-37 16l-299 299 q-16 16 -16 37z" />
<glyph unicode="&#xf8;" horiz-adv-x="839" d="M61 319v396q0 159 103 248q94 88 256 88q53 0 119 -17l20 60q12 34 51 34q26 0 41.5 -21.5t7.5 -47.5l-22 -66q141 -89 141 -278v-396q0 -156 -98 -245.5t-260 -89.5q-59 0 -121 16l-18 -57q-15 -45 -68 -33q-37 9 -37 39q0 6 4 26l23 68q-142 89 -142 276zM319 389 l148 430q-27 10 -47 10q-101 0 -101 -106v-334zM373 215q27 -10 47 -10q98 0 98 106v334z" />
<glyph unicode="&#xf9;" horiz-adv-x="995" d="M86 365v1044q0 53 53 53h185q51 0 51 -53v-1044q0 -138 123 -138q120 0 120 138v1044q0 53 54 53h184q53 0 53 -53v-1044q0 -178 -116 -285q-114 -105 -295 -105q-180 0 -297 105q-115 109 -115 285zM334 1567q0 28 33 28h153q46 0 66 -51l22 -49q4 -12 4 -20 q0 -31 -43 -31h-106q-35 0 -76 47l-49 57q-4 4 -4 19z" />
<glyph unicode="&#xfa;" horiz-adv-x="995" d="M86 365v1044q0 53 53 53h185q51 0 51 -53v-1044q0 -138 123 -138q120 0 120 138v1044q0 53 54 53h184q53 0 53 -53v-1044q0 -178 -116 -285q-114 -105 -295 -105q-180 0 -297 105q-115 109 -115 285zM387 1495q0 13 8 21l23 28q39 51 65 51h154q33 0 33 -28q0 -15 -4 -19 l-50 -37q-3 -3 -13.5 -13t-15 -14t-13 -10t-16.5 -8t-17 -2h-107q-47 0 -47 31z" />
<glyph unicode="&#xfb;" horiz-adv-x="995" d="M80 369v1044q0 53 53 53h184q52 0 52 -53v-1044q0 -138 123 -138q120 0 120 138v1044q0 53 54 53h184q53 0 53 -53v-1044q0 -170 -110 -277q-112 -112 -301 -112q-192 0 -304 112q-108 108 -108 277zM209 1495q-3 9 2 16l121 129h321l117 -129q8 -8 2 -16q-3 -8 -18 -8 h-162q-14 0 -25 8q-12 15 -65 72q-2 2 -8 2q-5 0 -7 -2q-14 -11 -77 -74q-9 -6 -21 -6h-164q-13 0 -16 8z" />
<glyph unicode="&#xfc;" horiz-adv-x="995" d="M86 365v1044q0 53 53 53h62v35q0 53 53 53h131q53 0 53 -53v-123q0 -53 -53 -53h-10v-956q0 -138 123 -138q120 0 120 138v956h-6q-53 0 -53 53v123q0 53 53 53h131q52 0 52 -53v-35h61q53 0 53 -53v-1044q0 -178 -116 -285q-114 -105 -295 -105q-180 0 -297 105 q-115 109 -115 285z" />
<glyph unicode="&#xfd;" horiz-adv-x="815" d="M-20 1430q0 32 36 32h168q55 0 70 -49l129 -448q6 -21 23 -21q16 0 22 21l131 448q15 49 68 49h170q39 0 39 -32q0 -2 -5 -17l-262 -713q-18 -50 -18 -102v-545q0 -53 -53 -53h-185q-53 0 -53 53v547q0 64 -18 102l-260 711q-2 6 -2 17zM291 1475q0 8 4 20l22 49 q20 51 66 51h154q32 0 32 -28q0 -15 -4 -19l-49 -57q-41 -47 -76 -47h-106q-43 0 -43 31z" />
<glyph unicode="&#xfe;" horiz-adv-x="866" d="M92 -299v1708q0 53 53 53h146q53 0 53 -53v-453q0 -24 23 -24q14 0 22 14q65 105 184 105q228 0 228 -306v-456q0 -305 -228 -305q-69 0 -110 30l-80 80q-5 8 -18 8q-21 0 -21 -24v-377q0 -51 -53 -51h-146q-53 0 -53 51zM352 303q0 -43 28 -70.5t71 -27.5q92 0 92 106 v412q0 106 -92 106q-43 0 -71 -27.5t-28 -70.5v-428z" />
<glyph unicode="&#xff;" horiz-adv-x="798" d="M-20 1430q0 32 36 32h168q55 0 70 -49l129 -448q6 -21 23 -21q16 0 22 21l131 448q15 49 68 49h170q39 0 39 -32q0 -2 -5 -17l-262 -713q-18 -50 -18 -102v-545q0 -53 -53 -53h-185q-53 0 -53 53v547q0 64 -18 102l-260 711q-2 6 -2 17zM94 1231v123q0 53 53 53h132 q53 0 53 -53v-123q0 -53 -53 -53h-132q-53 0 -53 53zM453 1231v123q0 53 53 53h131q51 0 51 -53v-123q0 -53 -51 -53h-131q-53 0 -53 53z" />
<glyph unicode="&#x152;" horiz-adv-x="1415" d="M72 367v731q0 178 121 284q115 103 296 103q53 0 121 -10l62 -13h626q54 0 54 -51v-147q0 -52 -54 -52h-337q-52 0 -52 -53v-207q0 -53 52 -53h278q51 0 51 -53v-146q0 -53 -51 -53h-278q-52 0 -52 -51v-293q0 -51 52 -51h360q53 0 53 -53v-146q0 -53 -53 -53h-649 q-24 0 -92 -10q-63 -13 -91 -13q-179 0 -299 105q-118 106 -118 285zM360 367q0 -62 35 -100t94 -38t94 38t35 100v731q0 137 -129 137t-129 -137v-731z" />
<glyph unicode="&#x153;" horiz-adv-x="1415" d="M72 367v731q0 178 121 284q115 103 296 103q53 0 121 -10l62 -13h626q54 0 54 -51v-147q0 -52 -54 -52h-337q-52 0 -52 -53v-207q0 -53 52 -53h278q51 0 51 -53v-146q0 -53 -51 -53h-278q-52 0 -52 -51v-293q0 -51 52 -51h360q53 0 53 -53v-146q0 -53 -53 -53h-649 q-24 0 -92 -10q-63 -13 -91 -13q-179 0 -299 105q-118 106 -118 285zM360 367q0 -62 35 -100t94 -38t94 38t35 100v731q0 137 -129 137t-129 -137v-731z" />
<glyph unicode="&#x178;" horiz-adv-x="815" d="M-20 1430q0 32 36 32h168q55 0 70 -49l129 -448q6 -21 23 -21q16 0 22 21l131 448q15 49 68 49h170q39 0 39 -32q0 -2 -5 -17l-262 -713q-18 -50 -18 -102v-545q0 -53 -53 -53h-185q-53 0 -53 53v547q0 64 -18 102l-260 711q-2 6 -2 17zM131 1640v123q0 54 53 54h131 q54 0 54 -54v-123q0 -53 -54 -53h-131q-53 0 -53 53zM489 1640v123q0 54 54 54h131q51 0 51 -54v-123q0 -53 -51 -53h-131q-54 0 -54 53z" />
<glyph unicode="&#x2c6;" horiz-adv-x="722" d="M80 1163q-4 11 2 17l117 123l86 92q15 18 41 18h84q18 0 34 -16q41 -48 197 -217q8 -8 2 -17q-3 -8 -18 -8h-162q-19 0 -53 43q-25 28 -37 37q-2 2 -8 2q-5 0 -7 -2q-12 -9 -77 -74q-9 -6 -21 -6h-164q-13 0 -16 8z" />
<glyph unicode="&#x2dc;" horiz-adv-x="743" d="M82 1200q0 86 53 138.5t139 52.5q46 0 115 -29t76 -29q43 0 43 43q0 15 10 15h129q15 0 15 -17q0 -87 -53.5 -138.5t-141.5 -51.5q-38 0 -105 28q-66 29 -79 29q-50 0 -50 -43q0 -14 -12 -14h-129q-10 0 -10 16z" />
<glyph unicode="&#x2000;" horiz-adv-x="908" />
<glyph unicode="&#x2001;" horiz-adv-x="1817" />
<glyph unicode="&#x2002;" horiz-adv-x="908" />
<glyph unicode="&#x2003;" horiz-adv-x="1817" />
<glyph unicode="&#x2004;" horiz-adv-x="605" />
<glyph unicode="&#x2005;" horiz-adv-x="454" />
<glyph unicode="&#x2006;" horiz-adv-x="302" />
<glyph unicode="&#x2007;" horiz-adv-x="302" />
<glyph unicode="&#x2008;" horiz-adv-x="227" />
<glyph unicode="&#x2009;" horiz-adv-x="363" />
<glyph unicode="&#x200a;" horiz-adv-x="100" />
<glyph unicode="&#x2010;" horiz-adv-x="712" d="M82 569v146q0 53 53 53h443q53 0 53 -53v-146q0 -53 -53 -53h-443q-53 0 -53 53z" />
<glyph unicode="&#x2011;" horiz-adv-x="712" d="M82 569v146q0 53 53 53h443q53 0 53 -53v-146q0 -53 -53 -53h-443q-53 0 -53 53z" />
<glyph unicode="&#x2012;" horiz-adv-x="712" d="M82 569v146q0 53 53 53h443q53 0 53 -53v-146q0 -53 -53 -53h-443q-53 0 -53 53z" />
<glyph unicode="&#x2013;" horiz-adv-x="1114" d="M92 569v146q0 53 53 53h824q53 0 53 -53v-146q0 -53 -53 -53h-824q-53 0 -53 53z" />
<glyph unicode="&#x2014;" horiz-adv-x="1699" d="M92 569v146q0 53 51 53h1411q54 0 54 -53v-146q0 -53 -54 -53h-1411q-51 0 -51 53z" />
<glyph unicode="&#x2018;" horiz-adv-x="434" d="M92 926v237q0 156 55 269q15 34 60 34q32 0 35 -34q-4 4 -13 -43q-19 -84 -22 -201q0 -25 26 -25h66q53 0 53 -53v-184q0 -52 -53 -52h-154q-53 0 -53 52z" />
<glyph unicode="&#x2019;" horiz-adv-x="432" d="M82 1225v184q0 53 51 53h154q53 0 53 -53v-235q0 -156 -55 -269q-15 -35 -58 -35q-37 0 -37 33l13 43q19 84 22 203q0 25 -26 25h-66q-51 0 -51 51z" />
<glyph unicode="&#x201a;" horiz-adv-x="421" d="M82 53v185q0 51 53 51h154q51 0 51 -51v-238q0 -155 -55 -268q-15 -35 -58 -35q-34 0 -34 35l10 43q21 89 24 200q0 25 -26 25h-66q-53 0 -53 53z" />
<glyph unicode="&#x201c;" horiz-adv-x="845" d="M92 926v237q0 156 55 269q15 34 60 34q32 0 35 -34q-4 4 -13 -43q-19 -84 -22 -201q0 -25 26 -25h66q53 0 53 -53v-184q0 -52 -53 -52h-154q-53 0 -53 52zM504 926v237q0 156 55 269q15 34 59 34q32 0 35 -34q-3 3 -12 -43q-20 -89 -23 -201q0 -25 27 -25h66q53 0 53 -53 v-184q0 -52 -53 -52h-154q-53 0 -53 52z" />
<glyph unicode="&#x201d;" horiz-adv-x="843" d="M82 1225v184q0 53 51 53h154q53 0 53 -53v-235q0 -156 -55 -269q-15 -35 -58 -35q-37 0 -37 33l13 43q19 84 22 203q0 25 -26 25h-66q-51 0 -51 51zM494 1225v184q0 53 51 53h153q54 0 54 -53v-235q0 -154 -56 -269q-15 -35 -57 -35q-37 0 -37 33q0 -3 12 43 q20 89 23 203q0 25 -27 25h-65q-51 0 -51 51z" />
<glyph unicode="&#x201e;" horiz-adv-x="833" d="M82 51v185q0 53 51 53h154q53 0 53 -53v-236q0 -155 -55 -268q-15 -35 -58 -35q-37 0 -37 35q0 -4 2 2l11 39q19 85 22 202q0 25 -26 25h-66q-51 0 -51 51zM494 51v185q0 53 51 53h153q54 0 54 -53v-236q0 -153 -56 -268q-15 -35 -57 -35q-37 0 -37 35q0 -5 4 10 q3 10 8 31q20 89 23 202q0 25 -27 25h-65q-51 0 -51 51z" />
<glyph unicode="&#x2022;" horiz-adv-x="550" d="M61 1016q0 91 62 153t153 62t152 -62t61 -153t-61 -153t-152 -62q-88 0 -151.5 63.5t-63.5 151.5z" />
<glyph unicode="&#x2026;" horiz-adv-x="1564" d="M92 53v185q0 51 53 51h154q53 0 53 -51v-185q0 -53 -53 -53h-154q-53 0 -53 53zM653 53v185q0 51 54 51h153q51 0 51 -51v-185q0 -53 -51 -53h-153q-54 0 -54 53zM1212 53v185q0 51 54 51h153q54 0 54 -51v-185q0 -53 -54 -53h-153q-54 0 -54 53z" />
<glyph unicode="&#x202f;" horiz-adv-x="363" />
<glyph unicode="&#x2039;" horiz-adv-x="989" d="M66 770q0 21 16 37l299 299q16 16 37 16t37 -16l12 -12q18 -18 18 -37t-18 -37l-154 -156q-12 -12 -12 -20q0 -17 29 -17h526q51 0 51 -51v-10q0 -53 -51 -53h-528q-27 0 -27 -15q0 -10 12 -22l154 -156q18 -18 18 -37t-18 -37l-12 -12q-16 -16 -37 -16t-37 16l-299 299 q-16 16 -16 37z" />
<glyph unicode="&#x203a;" horiz-adv-x="989" d="M82 766v10q0 51 51 51h526q29 0 29 17q0 8 -12 20l-154 156q-18 18 -18 37t18 37l13 12q16 16 36 16q21 0 37 -16l299 -299q17 -17 17 -37t-17 -37l-299 -299q-16 -16 -37 -16q-20 0 -36 16l-13 12q-18 18 -18 37t18 37l154 156q12 12 12 22q0 15 -26 15h-529 q-51 0 -51 53z" />
<glyph unicode="&#x205f;" horiz-adv-x="454" />
<glyph unicode="&#x20ac;" horiz-adv-x="1007" d="M10 569v56q0 51 53 51h62v106h-62q-53 0 -53 54v55q0 51 53 51h62v154q0 177 121 286q115 103 297 103q184 0 293.5 -105t109.5 -284v-138q0 -53 -51 -53h-176q-53 0 -53 53v138q0 61 -33.5 99t-89.5 38q-129 0 -129 -137v-154h92q53 0 53 -51v-55q0 -54 -53 -54h-92 v-106h92q53 0 53 -51v-56q0 -53 -53 -53h-92v-151q0 -62 35 -100t94 -38q56 0 89.5 38.5t33.5 99.5v137q0 53 53 53h176q51 0 51 -53v-137q0 -177 -111 -283.5t-292 -106.5q-179 0 -299 105q-119 107 -119 285v151h-62q-53 0 -53 53z" />
<glyph unicode="&#x2122;" horiz-adv-x="1751" d="M82 1309v127q0 26 41 26h516q39 0 39 -26v-127q0 -25 -39 -25h-111q-39 0 -39 -27v-501q0 -27 -38 -27h-140q-39 0 -39 27v501q0 27 -41 27h-108q-41 0 -41 25zM799 756v680q0 26 39 26h231q41 0 47 -26l101 -385q3 -13 18 -13q13 0 16 13l107 385q9 26 47 26h225 q39 0 39 -26v-680q0 -27 -39 -27h-127q-39 0 -39 27v481q0 8 -14 8q-13 0 -16 -8l-123 -481q-6 -27 -47 -27h-58q-43 0 -49 27l-123 483q-3 6 -14 6q-14 0 -14 -8v-481q0 -27 -39 -27h-129q-39 0 -39 27z" />
<glyph unicode="&#x25fc;" horiz-adv-x="1464" d="M0 0v1464h1464v-1464h-1464z" />
<glyph unicode="&#xfb01;" horiz-adv-x="995" d="M10 891v84q0 61 62 61h22q39 0 39 39v113q0 134 71 215.5t197 81.5q76 0 107 -8q63 -15 63 -82v-70q0 -59 -65 -59h-39q-76 0 -76 -95v-90q0 -45 47 -45h51q54 0 54 -53v-98q0 -47 -54 -47h-51q-47 0 -47 -45v-740q0 -53 -53 -53h-152q-53 0 -53 53v740q0 45 -47 45h-20 q-56 0 -56 53zM653 53v930q0 53 54 53h153q53 0 53 -53v-930q0 -53 -53 -53h-153q-54 0 -54 53zM653 1233v178q0 51 54 51h153q53 0 53 -51v-178q0 -51 -53 -51h-153q-54 0 -54 51z" />
<glyph unicode="&#xfb02;" horiz-adv-x="987" d="M10 891v84q0 61 62 61h22q39 0 39 39v113q0 134 71 215.5t197 81.5q76 0 107 -8q63 -15 63 -82v-70q0 -59 -65 -59h-39q-76 0 -76 -95v-90q0 -45 47 -45h51q54 0 54 -53v-98q0 -47 -54 -47h-51q-47 0 -47 -45v-740q0 -53 -53 -53h-152q-53 0 -53 53v740q0 45 -47 45h-20 q-56 0 -56 53zM647 53v1358q0 51 51 51h154q53 0 53 -51v-1358q0 -53 -53 -53h-154q-51 0 -51 53z" />
</font>
</defs>
</svg>
